<svg xmlns="http://www.w3.org/2000/svg" width="128" height="128" fill="none" stroke="#000" stroke-linecap="square" viewBox="0 0 3.84 3.84"><g transform="scale(.61222)"><circle cx="3.136" cy="3.136" r="3.025" fill="#fff" stroke-width=".222"/><g stroke-linecap="round"><path fill="#00f" stroke="#004af2" stroke-width=".052" d="M5.722 1.707H.46"/><path fill="purple" stroke="#b015ff" stroke-width=".214" d="M5.789 4.56H.495"/></g><path fill="#000" stroke="none" d="M2.42 1.646c-.767.011-1.365.619-1.425 1.456.069.918.548 1.427 1.425 1.448q.516 0 .902-.318c.123.2.351.315.606.318.604-.012 1.102-.901 1.349-1.41-.007-.392-.47-.53-.713-.076-.114.232-.328.684-.637.826q-.068 0-.068-.19V1.995q0-.326-.341-.326-.258 0-.326.205a1.34 1.34 0 0 0-.773-.227zm.004.67c.421 0 .761.35.761.781s-.341.781-.761.781-.761-.35-.761-.781.341-.781.761-.781"/><circle cx="3.136" cy="3.136" r="3.025" stroke-width=".222"/></g></svg>