<svg xmlns="http://www.w3.org/2000/svg" width="128" height="128" fill="none" stroke="#000" stroke-linecap="square" viewBox="0 0 3.84 3.84"><g transform="scale(.61222)"><circle cx="3.136" cy="3.136" r="3.025" fill="#fff" stroke-width=".222"/><g stroke-linecap="butt"><path fill="#00f" stroke="#004af2" stroke-width=".052" d="M5.777 1.707H.4"/><path fill="purple" stroke="#b015ff" stroke-width=".21" d="M5.797 4.56H.425"/></g><path fill="#000" stroke="none" d="M3.24 2.62c-.081 1.186-.372 1.558-.95 1.558-.428 0-.646-.472-.646-1.043 0-.795.385-1.037.757-1.037.298 0 .621.18.788.466a1 1 0 0 0 .05.056zm1.738 1.291c-.273.211-.534.261-.646.261-.584 0-.67-.844-.67-2.272a.204.204 0 0 0-.199-.199.2.2 0 0 0-.199.199v.137a1.33 1.33 0 0 0-.863-.335c-.615 0-1.155.484-1.155 1.434 0 .596.236 1.44 1.043 1.44.546 0 .913-.273 1.124-.782.137.441.41.776.919.776.211 0 .546-.074.894-.348a.18.18 0 0 0 .074-.149.205.205 0 0 0-.199-.205.2.2 0 0 0-.124.043z"/><circle cx="3.136" cy="3.136" r="3.025" stroke-width=".222"/></g></svg>