<svg xmlns="http://www.w3.org/2000/svg" xmlns:xlink="http://www.w3.org/1999/xlink" xml:space="preserve" width="128.001" height="256.002" viewBox="0 0 33.867 67.734"><defs><linearGradient id="b"><stop offset="0" style="stop-color:#5487ff;stop-opacity:1"/><stop offset="1" style="stop-color:#5487ff;stop-opacity:0"/></linearGradient><linearGradient id="a"><stop offset="0" style="stop-color:#d36500;stop-opacity:1"/><stop offset="1" style="stop-color:#784400;stop-opacity:1"/></linearGradient><linearGradient xlink:href="#a" id="d" x1="32.234" x2="32.234" y1="36.113" y2="50.935" gradientUnits="userSpaceOnUse"/><linearGradient xlink:href="#b" id="c" x1="17.534" x2="17.534" y1="8.718" y2="32.467" gradientUnits="userSpaceOnUse"/></defs><path d="M0 8.684h33.867v16.794H0z" style="fill:url(#c);fill-opacity:1;stroke:none;stroke-width:1.29225;stroke-linecap:round;stroke-linejoin:bevel;stroke-dasharray:none"/><path d="M0 25.599h33.867v8.255H0z" style="fill:#00bd00;fill-opacity:1;stroke:none;stroke-width:.906017;stroke-linecap:round;stroke-linejoin:bevel;stroke-dasharray:none"/><path fill="#00f" stroke="#004af2" stroke-width=".269" d="M33.867 25.648H0" style="fill:green;stroke:#062;stroke-width:1.05833542;stroke-dasharray:none;stroke-opacity:1"/><path d="M33.867 8.601H0" style="fill:#2121ff;fill-opacity:1;stroke:#153bff;stroke-width:1.05833542;stroke-dasharray:none;stroke-opacity:1"/><path d="M0 34.361h33.867v16.794H0z" style="fill:url(#d);fill-opacity:1;stroke:none;stroke-width:1.29225;stroke-linecap:round;stroke-linejoin:bevel;stroke-dasharray:none"/><path fill="#00f" stroke="#004af2" stroke-width=".269" d="M33.867 51.048H0" style="fill:green;stroke:#9a0000;stroke-width:1.05833542;stroke-dasharray:none;stroke-opacity:1"/><path d="M33.867 34.002H0" style="fill:#803300;fill-opacity:1;stroke:#c09300;stroke-width:1.05833542;stroke-dasharray:none;stroke-opacity:1"/><path d="M.54 27.838c-.053 0-.102.148-.15.41-.048.26-.096.637-.143 1.104A38 38 0 0 0 .121 31c-.034.622-.058 1.31-.045 2.034q0 .037.003.072.004.188.011.373h.761q-.007-.193-.012-.39l-.002-.069c-.014-.706-.013-1.385-.017-2.003a43 43 0 0 0-.033-1.65 11 11 0 0 0-.1-1.117c-.043-.263-.095-.41-.147-.41zM1.237 28.373c-.046.015-.043.173-.01.446.031.273.092.662.155 1.142.062.48.126 1.053.177 1.692.045.563.079 1.18.104 1.825h.71a21 21 0 0 0-.164-1.896 14 14 0 0 0-.337-1.719 7.6 7.6 0 0 0-.382-1.117c-.114-.256-.206-.387-.253-.373Z" style="fill:#0f0;fill-rule:evenodd;stroke:#000;stroke-width:.0709618;stroke-opacity:1"/><path d="M.54 27.838c-.053 0-.102.148-.15.41-.048.26-.096.637-.143 1.104A38 38 0 0 0 .121 31c-.034.622-.058 1.31-.045 2.034q0 .037.003.072.004.188.011.373h.761q-.007-.193-.012-.39l-.002-.069c-.014-.706-.013-1.385-.017-2.003a43 43 0 0 0-.033-1.65 11 11 0 0 0-.1-1.117c-.043-.263-.095-.41-.147-.41zM1.237 28.373c-.046.015-.043.173-.01.446.031.273.092.662.155 1.142.062.48.126 1.053.177 1.692.045.563.079 1.18.104 1.825h.71a21 21 0 0 0-.164-1.896 14 14 0 0 0-.337-1.719 7.6 7.6 0 0 0-.382-1.117c-.114-.256-.206-.387-.253-.373Z" style="fill:#0f0;fill-rule:evenodd;stroke:#000;stroke-width:.0709618;stroke-opacity:1"/><path d="M1.626 27.686c-.054 0-.105.152-.154.42-.05.269-.099.655-.147 1.135s-.093 1.052-.129 1.691c-.036.64-.06 1.345-.046 2.09l.002.073q.004.192.012.383h.781q-.007-.198-.012-.4l-.002-.071c-.014-.726-.014-1.422-.017-2.058a44 44 0 0 0-.035-1.693 11 11 0 0 0-.102-1.147c-.044-.271-.098-.423-.151-.423zM2.342 28.235c-.048.015-.044.178-.011.458s.095.68.16 1.173c.064.493.129 1.081.181 1.738.047.578.081 1.21.107 1.874h.73a21 21 0 0 0-.17-1.947 15 15 0 0 0-.345-1.765 8 8 0 0 0-.392-1.148c-.118-.262-.212-.397-.26-.383Z" style="fill:#0f0;fill-rule:evenodd;stroke:#000;stroke-width:.0709618;stroke-opacity:1"/><path d="M.437 28.959c-.041.013-.038.153-.01.395.028.241.082.585.137 1.01s.112.933.157 1.498c.04.499.07 1.044.093 1.616h.628a18 18 0 0 0-.145-1.678 13 13 0 0 0-.299-1.522 7 7 0 0 0-.337-.99c-.102-.225-.183-.342-.224-.329ZM3.538 28.313c.04.014.026.176-.026.458-.051.281-.14.684-.243 1.181-.104.498-.221 1.088-.31 1.747-.075.551-.13 1.15-.138 1.779H2.2a12 12 0 0 1 .198-1.869c.125-.68.29-1.278.45-1.77.16-.493.317-.88.44-1.141.122-.262.21-.398.25-.385zM5.502 33.478c.19-.585.385-1.142.566-1.663.194-.562.369-1.087.512-1.568q.125-.422.215-.794a9 9 0 0 0 .137-.685 8 8 0 0 0 .093-.978 4 4 0 0 1 .016-.27q.01-.096.038-.103.031-.007.077.08.048.088.098.266.049.178.08.442.03.264.022.6a7 7 0 0 1-.06.741c-.036.266-.087.551-.153.847a22 22 0 0 1-.437 1.63c-.142.467-.303.955-.463 1.455zM4.444 33.478c.19-.585.385-1.142.565-1.663.194-.562.37-1.087.512-1.568q.127-.422.216-.794a9 9 0 0 0 .137-.685 8 8 0 0 0 .093-.978 4 4 0 0 1 .016-.27q.01-.096.037-.103.03-.007.078.08.047.088.098.266.049.178.08.442.029.264.022.6a7 7 0 0 1-.06.741c-.036.266-.088.551-.153.847a22 22 0 0 1-.437 1.63c-.143.467-.304.955-.464 1.455z" style="fill:#0f0;fill-rule:evenodd;stroke:#000;stroke-width:.0709618;stroke-opacity:1"/><path d="M3.333 33.478q.003-.214 0-.433-.004-.154-.012-.31a10 10 0 0 0-.232-1.805 6.8 6.8 0 0 0-.533-1.51 5.7 5.7 0 0 0-.674-1.06 5.3 5.3 0 0 0-.688-.703c-.477-.319-.751-.537-.726-.599.026-.06.353.044.92.287.26.152.557.37.856.665.3.295.599.669.859 1.116.274.476.503 1.029.665 1.635a9 9 0 0 1 .291 2.275q.002.224-.004.442zM5.132 33.478c.195-.6.396-1.172.581-1.708.2-.577.38-1.116.526-1.61q.13-.434.221-.815.09-.382.141-.704a8 8 0 0 0 .096-1.004q.006-.181.016-.278t.039-.105q.031-.007.08.082.047.09.1.273.05.183.081.453.032.272.023.618a7 7 0 0 1-.061.76 11 11 0 0 1-.157.87c-.115.52-.269 1.083-.45 1.674-.145.48-.31.98-.475 1.494z" style="fill:#0f0;fill-rule:evenodd;stroke:#000;stroke-width:.0709618;stroke-opacity:1"/><path d="M4.758 33.478q.003-.185 0-.373-.004-.133-.01-.267a8.6 8.6 0 0 0-.2-1.557 6 6 0 0 0-.46-1.301 5 5 0 0 0-.58-.913 4.6 4.6 0 0 0-.593-.607c-.412-.274-.648-.463-.626-.516s.304.038.793.247c.224.132.48.32.738.574s.516.576.74.962c.236.41.433.886.573 1.409a7.7 7.7 0 0 1 .251 1.961q.002.193-.004.38z" style="fill:#0f0;fill-rule:evenodd;stroke:#000;stroke-width:.0709618;stroke-opacity:1"/><path d="M3.701 33.478q.021-.168.04-.337c.066-.67.087-1.321.068-1.936-.022-.719-.1-1.389-.205-1.986a16 16 0 0 0-.356-1.554c-.12-.434-.23-.78-.298-1.022s-.093-.38-.05-.399c.044-.018.15.086.299.301.148.216.337.545.531.974.194.43.39.961.55 1.578s.283 1.319.332 2.077a12.7 12.7 0 0 1-.065 2.304z" style="fill:#0f0;fill-rule:evenodd;stroke:#000;stroke-width:.067773;stroke-opacity:1"/><path d="M6.672 27.838c-.053 0-.102.148-.15.41-.048.26-.096.637-.143 1.104A38 38 0 0 0 6.253 31a27 27 0 0 0-.045 2.034q0 .037.003.072.004.188.012.373h.76q-.007-.193-.012-.39l-.002-.069c-.014-.706-.013-1.385-.017-2.003a43 43 0 0 0-.033-1.65 11 11 0 0 0-.1-1.117c-.043-.263-.095-.41-.147-.41zM7.37 28.373c-.047.015-.044.173-.012.446s.093.662.156 1.142c.062.48.126 1.053.177 1.692.045.563.079 1.18.104 1.825h.71a21 21 0 0 0-.164-1.896 14 14 0 0 0-.337-1.719 7.6 7.6 0 0 0-.382-1.117c-.114-.256-.206-.387-.253-.373Z" style="fill:#0f0;fill-rule:evenodd;stroke:#000;stroke-width:.0709618;stroke-opacity:1"/><path d="M6.672 27.838c-.053 0-.102.148-.15.41-.048.26-.096.637-.143 1.104A38 38 0 0 0 6.253 31a27 27 0 0 0-.045 2.034q0 .037.003.072.004.188.012.373h.76q-.007-.193-.012-.39l-.002-.069c-.014-.706-.013-1.385-.017-2.003a43 43 0 0 0-.033-1.65 11 11 0 0 0-.1-1.117c-.043-.263-.095-.41-.147-.41zM7.37 28.373c-.047.015-.044.173-.012.446s.093.662.156 1.142c.062.48.126 1.053.177 1.692.045.563.079 1.18.104 1.825h.71a21 21 0 0 0-.164-1.896 14 14 0 0 0-.337-1.719 7.6 7.6 0 0 0-.382-1.117c-.114-.256-.206-.387-.253-.373Z" style="fill:#0f0;fill-rule:evenodd;stroke:#000;stroke-width:.0709618;stroke-opacity:1"/><path d="M7.758 27.686c-.054 0-.105.152-.154.42-.05.269-.098.655-.147 1.135s-.093 1.052-.129 1.691c-.036.64-.06 1.345-.046 2.09l.002.073q.005.192.012.383h.781q-.007-.198-.012-.4l-.002-.071c-.014-.726-.013-1.422-.017-2.058a44 44 0 0 0-.034-1.693 11 11 0 0 0-.103-1.147c-.044-.271-.097-.423-.151-.423zM8.474 28.235c-.048.015-.044.178-.011.458s.095.68.16 1.173c.064.493.13 1.081.181 1.738.047.578.081 1.21.108 1.874h.728a21 21 0 0 0-.168-1.947 15 15 0 0 0-.346-1.765 8 8 0 0 0-.392-1.148c-.118-.262-.212-.397-.26-.383Z" style="fill:#0f0;fill-rule:evenodd;stroke:#000;stroke-width:.0709618;stroke-opacity:1"/><path d="M6.569 28.959c-.041.013-.038.153-.01.395.028.241.082.585.137 1.01s.112.933.158 1.498c.04.499.07 1.044.092 1.616h.628a18 18 0 0 0-.145-1.678 13 13 0 0 0-.299-1.522 7 7 0 0 0-.337-.99c-.102-.225-.183-.342-.224-.329ZM9.67 28.313c.04.014.026.176-.026.458-.051.281-.14.684-.243 1.181-.103.498-.221 1.088-.31 1.747-.075.551-.13 1.15-.138 1.779h-.622a12 12 0 0 1 .198-1.869c.125-.68.29-1.278.45-1.77.16-.493.317-.88.44-1.141.122-.262.21-.398.25-.385zM11.634 33.478c.19-.585.385-1.142.566-1.663.194-.562.37-1.087.512-1.568q.126-.422.215-.794.088-.371.137-.685a8 8 0 0 0 .094-.978q.005-.175.015-.27t.038-.103q.031-.007.077.08.048.088.098.266.049.178.08.442.03.264.022.6a7 7 0 0 1-.06.741c-.036.266-.087.551-.153.847a22 22 0 0 1-.437 1.63c-.142.467-.303.955-.463 1.455zM10.576 33.478c.19-.585.385-1.142.565-1.663.194-.562.37-1.087.512-1.568q.127-.422.216-.794.087-.371.137-.685a8 8 0 0 0 .093-.978q.006-.175.016-.27t.037-.103q.03-.007.078.08.047.088.098.266.049.178.08.442.029.264.022.6a7 7 0 0 1-.06.741c-.036.266-.088.551-.153.847a22 22 0 0 1-.437 1.63c-.143.467-.304.955-.464 1.455z" style="fill:#0f0;fill-rule:evenodd;stroke:#000;stroke-width:.0709618;stroke-opacity:1"/><path d="M9.465 33.478q.003-.214 0-.433-.004-.154-.011-.31a10 10 0 0 0-.233-1.805 6.8 6.8 0 0 0-.533-1.51 5.7 5.7 0 0 0-.674-1.06 5.3 5.3 0 0 0-.688-.703c-.477-.319-.751-.537-.726-.599.027-.06.354.044.92.287.26.152.557.37.856.665.3.295.599.669.859 1.116.274.476.503 1.029.665 1.635a9 9 0 0 1 .291 2.275q.003.224-.004.442zM11.264 33.478c.195-.6.396-1.172.581-1.708.2-.577.38-1.116.526-1.61q.13-.434.221-.815.09-.382.141-.704a8 8 0 0 0 .096-1.004q.006-.181.016-.278t.039-.105q.031-.007.08.082c.03.06.067.152.1.273q.051.183.081.453.032.272.023.618a7 7 0 0 1-.061.76 11 11 0 0 1-.157.87c-.115.52-.269 1.083-.449 1.674-.146.48-.312.98-.476 1.494z" style="fill:#0f0;fill-rule:evenodd;stroke:#000;stroke-width:.0709618;stroke-opacity:1"/><path d="M10.89 33.478q.003-.185 0-.373-.003-.133-.01-.267a8.6 8.6 0 0 0-.2-1.557 6 6 0 0 0-.46-1.301 5 5 0 0 0-.58-.913 4.6 4.6 0 0 0-.593-.607c-.412-.274-.648-.463-.626-.516s.304.038.793.247c.224.132.48.32.738.574s.516.576.74.962c.236.41.434.886.573 1.409a7.7 7.7 0 0 1 .251 1.961q.002.193-.003.38z" style="fill:#0f0;fill-rule:evenodd;stroke:#000;stroke-width:.0709618;stroke-opacity:1"/><path d="M9.833 33.478q.021-.168.04-.337c.066-.67.087-1.321.068-1.936-.022-.719-.1-1.389-.204-1.986a16 16 0 0 0-.356-1.554c-.122-.434-.231-.78-.299-1.022s-.093-.38-.05-.399c.044-.018.15.086.299.301.148.216.338.545.531.974.194.43.39.961.55 1.578s.283 1.319.332 2.077a12.7 12.7 0 0 1-.065 2.304z" style="fill:#0f0;fill-rule:evenodd;stroke:#000;stroke-width:.067773;stroke-opacity:1"/><path d="M12.701 27.838c-.052 0-.101.148-.15.41-.047.26-.095.637-.142 1.104A38 38 0 0 0 12.283 31c-.035.622-.059 1.31-.045 2.034l.002.072q.005.188.012.373h.76l-.011-.39-.002-.069c-.014-.706-.013-1.385-.017-2.003a42 42 0 0 0-.033-1.65 11 11 0 0 0-.1-1.117c-.043-.263-.095-.41-.148-.41zM13.4 28.373c-.047.015-.044.173-.012.446s.093.662.155 1.142c.063.48.127 1.053.178 1.692.045.563.079 1.18.104 1.825h.71c-.03-.67-.084-1.312-.164-1.896a14 14 0 0 0-.338-1.719 7.6 7.6 0 0 0-.38-1.117c-.116-.256-.207-.387-.254-.373z" style="fill:#0f0;fill-rule:evenodd;stroke:#000;stroke-width:.0709618;stroke-opacity:1"/><path d="M12.701 27.838c-.052 0-.101.148-.15.41-.047.26-.095.637-.142 1.104A38 38 0 0 0 12.283 31c-.035.622-.059 1.31-.045 2.034l.002.072q.005.188.012.373h.76l-.011-.39-.002-.069c-.014-.706-.013-1.385-.017-2.003a42 42 0 0 0-.033-1.65 11 11 0 0 0-.1-1.117c-.043-.263-.095-.41-.148-.41zM13.4 28.373c-.047.015-.044.173-.012.446s.093.662.155 1.142c.063.48.127 1.053.178 1.692.045.563.079 1.18.104 1.825h.71c-.03-.67-.084-1.312-.164-1.896a14 14 0 0 0-.338-1.719 7.6 7.6 0 0 0-.38-1.117c-.116-.256-.207-.387-.254-.373z" style="fill:#0f0;fill-rule:evenodd;stroke:#000;stroke-width:.0709618;stroke-opacity:1"/><path d="M13.787 27.686c-.053 0-.104.152-.153.42-.05.269-.099.655-.147 1.135s-.093 1.052-.13 1.691c-.035.64-.06 1.345-.045 2.09l.002.073q.005.192.012.383h.781q-.007-.198-.012-.4l-.002-.071c-.015-.726-.014-1.422-.018-2.058a44 44 0 0 0-.034-1.693 11 11 0 0 0-.102-1.147c-.044-.271-.098-.423-.152-.423zM14.504 28.235c-.048.015-.044.178-.011.458.032.28.095.68.16 1.173.064.493.129 1.081.181 1.738.046.578.081 1.21.107 1.874h.729a21 21 0 0 0-.169-1.947 15 15 0 0 0-.346-1.765 8 8 0 0 0-.391-1.148c-.118-.262-.212-.397-.26-.383z" style="fill:#0f0;fill-rule:evenodd;stroke:#000;stroke-width:.0709618;stroke-opacity:1"/><path d="M12.599 28.959c-.042.013-.038.153-.01.395.028.241.082.585.137 1.01s.112.933.157 1.498c.04.499.07 1.044.093 1.616h.628a18 18 0 0 0-.146-1.678 13 13 0 0 0-.298-1.522 7 7 0 0 0-.338-.99c-.101-.225-.182-.342-.223-.329zM15.7 28.313c.04.014.026.176-.026.458-.052.281-.14.684-.243 1.181-.104.498-.221 1.088-.31 1.747-.075.551-.13 1.15-.138 1.779h-.622c.017-.667.093-1.298.198-1.869.125-.68.29-1.278.45-1.77.16-.493.317-.88.44-1.141.122-.262.21-.398.25-.385zM17.664 33.478c.19-.585.385-1.142.565-1.663.194-.562.37-1.087.513-1.568q.125-.422.215-.794.087-.371.137-.685a8 8 0 0 0 .093-.978q.006-.175.016-.27t.038-.103q.03-.007.077.08c.03.058.066.148.098.266q.049.178.08.442.03.264.022.6a7 7 0 0 1-.06.741q-.055.401-.153.847a22 22 0 0 1-.437 1.63c-.142.467-.303.955-.463 1.455zM16.606 33.478c.189-.585.385-1.142.565-1.663.194-.562.37-1.087.512-1.568q.126-.422.215-.794.088-.371.138-.685a8 8 0 0 0 .093-.978q.005-.175.015-.27t.038-.103q.03-.007.078.08.047.088.097.266t.08.442.022.6a7 7 0 0 1-.06.741q-.053.401-.152.847a22 22 0 0 1-.437 1.63c-.143.467-.304.955-.464 1.455z" style="fill:#0f0;fill-rule:evenodd;stroke:#000;stroke-width:.0709618;stroke-opacity:1"/><path d="M15.495 33.478q.003-.214 0-.433-.004-.154-.012-.31a10 10 0 0 0-.232-1.805 6.8 6.8 0 0 0-.533-1.51 5.7 5.7 0 0 0-.674-1.06 5.3 5.3 0 0 0-.688-.703c-.478-.319-.751-.537-.726-.599.026-.06.353.044.92.287.26.152.557.37.856.665.3.295.598.669.859 1.116.274.476.503 1.029.665 1.635a9 9 0 0 1 .291 2.275q.003.224-.004.442zM17.294 33.478c.195-.6.396-1.172.58-1.708.2-.577.38-1.116.527-1.61q.129-.434.22-.815.09-.382.142-.704a8 8 0 0 0 .096-1.004q.005-.181.016-.278t.038-.105q.032-.007.08.082.05.09.1.273t.082.453q.031.272.023.618a7 7 0 0 1-.061.76 11 11 0 0 1-.158.87c-.114.52-.268 1.083-.448 1.674-.146.48-.312.98-.476 1.494z" style="fill:#0f0;fill-rule:evenodd;stroke:#000;stroke-width:.0709618;stroke-opacity:1"/><path d="M16.92 33.478q.003-.185 0-.373-.003-.133-.01-.267a8.6 8.6 0 0 0-.2-1.557 6 6 0 0 0-.46-1.301 5 5 0 0 0-.58-.913 4.6 4.6 0 0 0-.593-.607c-.412-.274-.648-.463-.626-.516s.304.038.793.247c.224.132.48.32.738.574.257.254.515.576.74.962.236.41.433.886.573 1.409a7.7 7.7 0 0 1 .251 1.961q.002.193-.004.38z" style="fill:#0f0;fill-rule:evenodd;stroke:#000;stroke-width:.0709618;stroke-opacity:1"/><path d="M15.863 33.478q.02-.168.04-.337c.065-.67.086-1.321.067-1.936-.022-.719-.1-1.389-.204-1.986a16 16 0 0 0-.356-1.554c-.12-.434-.23-.78-.298-1.022s-.093-.38-.05-.399c.043-.018.15.086.299.301.148.216.337.545.53.974.195.43.39.961.55 1.578s.284 1.319.333 2.077a12.7 12.7 0 0 1-.066 2.304z" style="fill:#0f0;fill-rule:evenodd;stroke:#000;stroke-width:.067773;stroke-opacity:1"/><path d="M18.834 27.838c-.053 0-.102.148-.15.41-.048.26-.096.637-.143 1.104A38 38 0 0 0 18.415 31c-.034.622-.059 1.31-.045 2.034q0 .037.003.072.003.188.011.373h.76l-.011-.39-.002-.069c-.014-.706-.013-1.385-.017-2.003a42 42 0 0 0-.033-1.65 11 11 0 0 0-.1-1.117c-.043-.263-.095-.41-.147-.41zM19.531 28.373c-.046.015-.043.173-.01.446.031.273.092.662.154 1.142.063.48.127 1.053.178 1.692.045.563.079 1.18.104 1.825h.71c-.03-.67-.084-1.312-.164-1.896a14 14 0 0 0-.337-1.719 7.6 7.6 0 0 0-.382-1.117c-.115-.256-.206-.387-.253-.373z" style="fill:#0f0;fill-rule:evenodd;stroke:#000;stroke-width:.0709618;stroke-opacity:1"/><path d="M18.834 27.838c-.053 0-.102.148-.15.41-.048.26-.096.637-.143 1.104A38 38 0 0 0 18.415 31c-.034.622-.059 1.31-.045 2.034q0 .037.003.072.003.188.011.373h.76l-.011-.39-.002-.069c-.014-.706-.013-1.385-.017-2.003a42 42 0 0 0-.033-1.65 11 11 0 0 0-.1-1.117c-.043-.263-.095-.41-.147-.41zM19.531 28.373c-.046.015-.043.173-.01.446.031.273.092.662.154 1.142.063.48.127 1.053.178 1.692.045.563.079 1.18.104 1.825h.71c-.03-.67-.084-1.312-.164-1.896a14 14 0 0 0-.337-1.719 7.6 7.6 0 0 0-.382-1.117c-.115-.256-.206-.387-.253-.373z" style="fill:#0f0;fill-rule:evenodd;stroke:#000;stroke-width:.0709618;stroke-opacity:1"/><path d="M19.92 27.686c-.054 0-.105.152-.154.42-.05.269-.099.655-.147 1.135s-.093 1.052-.129 1.691c-.036.64-.06 1.345-.046 2.09l.002.073q.005.192.012.383h.781q-.007-.198-.012-.4l-.002-.071c-.014-.726-.014-1.422-.017-2.058a44 44 0 0 0-.035-1.693 11 11 0 0 0-.102-1.147c-.044-.271-.098-.423-.151-.423zM20.636 28.235c-.048.015-.044.178-.011.458.032.28.095.68.16 1.173.064.493.129 1.081.181 1.738.046.578.081 1.21.107 1.874h.73a21 21 0 0 0-.17-1.947 15 15 0 0 0-.346-1.765 8 8 0 0 0-.391-1.148c-.118-.262-.212-.397-.26-.383Z" style="fill:#0f0;fill-rule:evenodd;stroke:#000;stroke-width:.0709618;stroke-opacity:1"/><path d="M18.73 28.959c-.04.013-.037.153-.01.395.03.241.083.585.138 1.01s.112.933.157 1.498c.04.499.07 1.044.093 1.616h.628a18 18 0 0 0-.145-1.678 13 13 0 0 0-.299-1.522 7 7 0 0 0-.337-.99c-.102-.225-.183-.342-.224-.329zM21.832 28.313c.04.014.026.176-.026.458-.051.281-.14.684-.243 1.181-.104.498-.221 1.088-.31 1.747-.075.551-.13 1.15-.138 1.779h-.622c.017-.667.093-1.298.198-1.869.125-.68.29-1.278.45-1.77.16-.493.317-.88.44-1.141.122-.262.21-.398.25-.385zM23.796 33.478c.19-.585.385-1.142.565-1.663.195-.562.37-1.087.513-1.568q.125-.422.215-.794.087-.371.137-.685a8 8 0 0 0 .093-.978q.006-.175.016-.27t.038-.103q.031-.007.077.08c.03.058.066.148.098.266q.049.178.08.442.03.264.022.6a7 7 0 0 1-.06.741c-.036.266-.088.551-.153.847a22 22 0 0 1-.437 1.63c-.142.467-.303.955-.463 1.455zM22.738 33.478c.19-.585.385-1.142.565-1.663.194-.562.37-1.087.512-1.568q.126-.422.215-.794.088-.371.138-.685a8 8 0 0 0 .093-.978q.005-.175.016-.27t.037-.103q.03-.007.078.08c.03.058.065.148.097.266q.05.178.08.442t.022.6a7 7 0 0 1-.06.741c-.035.266-.087.551-.152.847a22 22 0 0 1-.437 1.63c-.143.467-.304.955-.464 1.455z" style="fill:#0f0;fill-rule:evenodd;stroke:#000;stroke-width:.0709618;stroke-opacity:1"/><path d="M21.627 33.478q.003-.214 0-.433-.004-.154-.012-.31a10 10 0 0 0-.232-1.805 6.8 6.8 0 0 0-.533-1.51 5.7 5.7 0 0 0-.674-1.06 5.3 5.3 0 0 0-.688-.703c-.478-.319-.751-.537-.726-.599.026-.06.353.044.92.287.26.152.557.37.856.665.3.295.598.669.859 1.116.274.476.503 1.029.665 1.635a9 9 0 0 1 .291 2.275q.003.224-.004.442zM23.426 33.478c.195-.6.396-1.172.581-1.708.2-.577.38-1.116.526-1.61q.13-.434.22-.815.091-.382.142-.704a8 8 0 0 0 .096-1.004q.005-.181.016-.278t.038-.105q.032-.007.08.082.05.09.1.273t.082.453q.032.271.023.618a7 7 0 0 1-.061.76 11 11 0 0 1-.158.87c-.114.52-.268 1.083-.448 1.674-.146.48-.312.98-.476 1.494z" style="fill:#0f0;fill-rule:evenodd;stroke:#000;stroke-width:.0709618;stroke-opacity:1"/><path d="M23.052 33.478q.003-.185 0-.373-.003-.133-.01-.267a8.6 8.6 0 0 0-.2-1.557 6 6 0 0 0-.46-1.301 5 5 0 0 0-.58-.913 4.6 4.6 0 0 0-.593-.607c-.412-.274-.648-.463-.626-.516s.304.038.793.247c.224.132.48.32.738.574s.515.576.74.962c.236.41.433.886.573 1.409a7.7 7.7 0 0 1 .251 1.961q.002.193-.004.38z" style="fill:#0f0;fill-rule:evenodd;stroke:#000;stroke-width:.0709618;stroke-opacity:1"/><path d="M21.995 33.478q.02-.168.04-.337c.065-.67.086-1.321.067-1.936-.021-.719-.1-1.389-.204-1.986a16 16 0 0 0-.356-1.554c-.12-.434-.23-.78-.298-1.022s-.093-.38-.05-.399c.043-.018.15.086.299.301.148.216.337.545.531.974.194.43.39.961.55 1.578s.283 1.319.332 2.077a12.7 12.7 0 0 1-.065 2.304z" style="fill:#0f0;fill-rule:evenodd;stroke:#000;stroke-width:.067773;stroke-opacity:1"/><path d="M23.443 27.838c-.052 0-.101.148-.15.41-.047.26-.095.637-.142 1.104A38 38 0 0 0 23.025 31c-.035.622-.059 1.31-.045 2.034l.002.072q.005.188.012.373h.76l-.011-.39-.003-.069c-.013-.706-.013-1.385-.016-2.003a42 42 0 0 0-.034-1.65 11 11 0 0 0-.1-1.117c-.042-.263-.094-.41-.147-.41zM24.141 28.373c-.047.015-.043.173-.011.446s.092.662.155 1.142.127 1.053.178 1.692c.045.563.078 1.18.104 1.825h.71c-.03-.67-.085-1.312-.165-1.896a14 14 0 0 0-.337-1.719 7.6 7.6 0 0 0-.381-1.117c-.115-.256-.206-.387-.253-.373z" style="fill:#0f0;fill-rule:evenodd;stroke:#000;stroke-width:.0709618;stroke-opacity:1"/><path d="M23.443 27.838c-.052 0-.101.148-.15.41-.047.26-.095.637-.142 1.104A38 38 0 0 0 23.025 31c-.035.622-.059 1.31-.045 2.034l.002.072q.005.188.012.373h.76l-.011-.39-.003-.069c-.013-.706-.013-1.385-.016-2.003a42 42 0 0 0-.034-1.65 11 11 0 0 0-.1-1.117c-.042-.263-.094-.41-.147-.41zM24.141 28.373c-.047.015-.043.173-.011.446s.092.662.155 1.142.127 1.053.178 1.692c.045.563.078 1.18.104 1.825h.71c-.03-.67-.085-1.312-.165-1.896a14 14 0 0 0-.337-1.719 7.6 7.6 0 0 0-.381-1.117c-.115-.256-.206-.387-.253-.373z" style="fill:#0f0;fill-rule:evenodd;stroke:#000;stroke-width:.0709618;stroke-opacity:1"/><path d="M24.53 27.686c-.055 0-.105.152-.155.42-.049.269-.098.655-.146 1.135s-.094 1.052-.13 1.691c-.035.64-.06 1.345-.046 2.09l.003.073q.004.192.012.383h.78l-.011-.4q0-.035-.003-.071c-.014-.726-.013-1.422-.017-2.058a44 44 0 0 0-.034-1.693 11 11 0 0 0-.102-1.147c-.045-.271-.098-.423-.152-.423zM25.246 28.235c-.048.015-.044.178-.012.458.033.28.095.68.16 1.173.064.493.13 1.081.182 1.738.046.578.081 1.21.107 1.874h.729a21 21 0 0 0-.169-1.947 15 15 0 0 0-.346-1.765 8 8 0 0 0-.392-1.148c-.117-.262-.211-.397-.26-.383z" style="fill:#0f0;fill-rule:evenodd;stroke:#000;stroke-width:.0709618;stroke-opacity:1"/><path d="M23.34 28.959c-.04.013-.038.153-.01.395.029.241.082.585.138 1.01s.112.933.157 1.498c.04.499.07 1.044.092 1.616h.629A18 18 0 0 0 24.2 31.8a13 13 0 0 0-.298-1.522 7 7 0 0 0-.338-.99c-.101-.225-.182-.342-.224-.329zM26.441 28.313c.04.014.026.176-.025.458-.052.281-.14.684-.244 1.181-.103.498-.22 1.088-.31 1.747-.074.551-.129 1.15-.137 1.779h-.622c.017-.667.093-1.298.198-1.869.125-.68.289-1.278.45-1.77.16-.493.316-.88.439-1.141.123-.262.211-.398.251-.385zM28.406 33.478c.19-.585.385-1.142.565-1.663.194-.562.37-1.087.512-1.568q.126-.422.215-.794.088-.371.138-.685a8 8 0 0 0 .093-.978q.005-.175.016-.27t.037-.103q.03-.007.078.08.047.088.097.266t.08.442.022.6a7 7 0 0 1-.06.741c-.035.266-.087.551-.152.847a22 22 0 0 1-.437 1.63c-.143.467-.304.955-.464 1.455zM27.347 33.478c.19-.585.386-1.142.566-1.663.194-.562.37-1.087.512-1.568q.125-.422.215-.794.088-.371.138-.685a8 8 0 0 0 .093-.978q.005-.175.015-.27t.038-.103q.03-.007.078.08.047.088.097.266.049.178.08.442.03.264.022.6a7 7 0 0 1-.06.741c-.035.266-.087.551-.153.847a22 22 0 0 1-.437 1.63c-.142.467-.303.955-.463 1.455z" style="fill:#0f0;fill-rule:evenodd;stroke:#000;stroke-width:.0709618;stroke-opacity:1"/><path d="M26.236 33.478q.004-.214 0-.433-.003-.154-.011-.31a10 10 0 0 0-.232-1.805 6.8 6.8 0 0 0-.533-1.51 5.7 5.7 0 0 0-.674-1.06 5.3 5.3 0 0 0-.688-.703c-.478-.319-.752-.537-.726-.599.026-.06.353.044.92.287.26.152.557.37.856.665s.598.669.858 1.116c.274.476.503 1.029.665 1.635a9 9 0 0 1 .292 2.275q.002.224-.005.442zM28.036 33.478c.195-.6.396-1.172.58-1.708.2-.577.38-1.116.527-1.61q.129-.434.22-.815.09-.382.142-.704a8 8 0 0 0 .095-1.004q.007-.181.016-.278.011-.098.04-.105t.079.082c.031.06.067.152.1.273q.05.183.082.453.031.272.023.618a7 7 0 0 1-.062.76 11 11 0 0 1-.157.87c-.115.52-.268 1.083-.448 1.674-.147.48-.312.98-.476 1.494z" style="fill:#0f0;fill-rule:evenodd;stroke:#000;stroke-width:.0709618;stroke-opacity:1"/><path d="M27.662 33.478q.002-.185 0-.373-.003-.133-.01-.267a8.6 8.6 0 0 0-.2-1.557 6 6 0 0 0-.46-1.301 5 5 0 0 0-.58-.913 4.6 4.6 0 0 0-.593-.607c-.412-.274-.648-.463-.627-.516.023-.052.305.038.793.247.225.132.48.32.738.574s.516.576.74.962c.237.41.434.886.574 1.409a7.7 7.7 0 0 1 .251 1.961q.002.193-.004.38z" style="fill:#0f0;fill-rule:evenodd;stroke:#000;stroke-width:.0709618;stroke-opacity:1"/><path d="M26.605 33.478q.02-.168.04-.337c.065-.67.086-1.321.067-1.936-.022-.719-.1-1.389-.204-1.986a16 16 0 0 0-.356-1.554c-.121-.434-.23-.78-.298-1.022s-.093-.38-.05-.399c.043-.018.15.086.298.301.148.216.338.545.532.974.193.43.389.961.55 1.578.16.617.283 1.319.332 2.077a12.7 12.7 0 0 1-.066 2.304z" style="fill:#0f0;fill-rule:evenodd;stroke:#000;stroke-width:.067773;stroke-opacity:1"/><path d="M29.575 27.838c-.052 0-.101.148-.15.41-.047.26-.095.637-.142 1.104A38 38 0 0 0 29.157 31c-.035.622-.059 1.31-.045 2.034l.002.072q.004.188.012.373h.76l-.011-.39-.003-.069c-.013-.706-.013-1.385-.016-2.003a42 42 0 0 0-.034-1.65 11 11 0 0 0-.1-1.117c-.042-.263-.094-.41-.147-.41zM30.273 28.373c-.047.015-.043.173-.011.446s.092.662.155 1.142.127 1.053.178 1.692c.045.563.078 1.18.104 1.825h.71c-.03-.67-.085-1.312-.165-1.896a14 14 0 0 0-.337-1.719 7.6 7.6 0 0 0-.381-1.117c-.115-.256-.206-.387-.253-.373z" style="fill:#0f0;fill-rule:evenodd;stroke:#000;stroke-width:.0709618;stroke-opacity:1"/><path d="M29.575 27.838c-.052 0-.101.148-.15.41-.047.26-.095.637-.142 1.104A38 38 0 0 0 29.157 31c-.035.622-.059 1.31-.045 2.034l.002.072q.004.188.012.373h.76l-.011-.39-.003-.069c-.013-.706-.013-1.385-.016-2.003a42 42 0 0 0-.034-1.65 11 11 0 0 0-.1-1.117c-.042-.263-.094-.41-.147-.41zM30.273 28.373c-.047.015-.043.173-.011.446s.092.662.155 1.142.127 1.053.178 1.692c.045.563.078 1.18.104 1.825h.71c-.03-.67-.085-1.312-.165-1.896a14 14 0 0 0-.337-1.719 7.6 7.6 0 0 0-.381-1.117c-.115-.256-.206-.387-.253-.373z" style="fill:#0f0;fill-rule:evenodd;stroke:#000;stroke-width:.0709618;stroke-opacity:1"/><path d="M30.661 27.686c-.054 0-.104.152-.153.42-.05.269-.099.655-.147 1.135s-.094 1.052-.13 1.691c-.035.64-.06 1.345-.046 2.09l.003.073q.004.192.012.383h.781q-.008-.198-.012-.4 0-.035-.003-.071c-.014-.726-.013-1.422-.017-2.058a44 44 0 0 0-.034-1.693 11 11 0 0 0-.102-1.147c-.044-.271-.098-.423-.152-.423zM31.378 28.235c-.048.015-.044.178-.012.458.033.28.095.68.16 1.173.064.493.13 1.081.182 1.738.046.578.081 1.21.107 1.874h.729a21 21 0 0 0-.169-1.947 15 15 0 0 0-.346-1.765 8 8 0 0 0-.392-1.148c-.117-.262-.211-.397-.26-.383z" style="fill:#0f0;fill-rule:evenodd;stroke:#000;stroke-width:.0709618;stroke-opacity:1"/><path d="M29.473 28.959c-.042.013-.039.153-.01.395.028.241.081.585.137 1.01s.112.933.157 1.498c.04.499.07 1.044.092 1.616h.629a18 18 0 0 0-.146-1.678 13 13 0 0 0-.298-1.522 7 7 0 0 0-.338-.99c-.101-.225-.182-.342-.223-.329zM32.573 28.313c.04.014.026.176-.025.458-.052.281-.14.684-.244 1.181-.103.498-.22 1.088-.31 1.747-.074.551-.129 1.15-.137 1.779h-.622c.017-.667.093-1.298.198-1.869.125-.68.289-1.278.45-1.77.16-.493.317-.88.44-1.141.122-.262.21-.398.25-.385z" style="fill:#0f0;fill-rule:evenodd;stroke:#000;stroke-width:.0709618;stroke-opacity:1"/><path d="M32.369 33.478q.002-.214 0-.433-.004-.154-.012-.31a10 10 0 0 0-.232-1.805 6.8 6.8 0 0 0-.533-1.51 5.7 5.7 0 0 0-.674-1.06 5.3 5.3 0 0 0-.688-.703c-.478-.319-.751-.537-.726-.599.026-.06.353.044.92.287.26.152.557.37.856.665s.598.669.858 1.116c.275.476.503 1.029.665 1.635a9 9 0 0 1 .292 2.275q.002.224-.005.442z" style="fill:#0f0;fill-rule:evenodd;stroke:#000;stroke-width:.0709618;stroke-opacity:1"/><path d="M32.935 33.478q.02-.168.04-.337c.065-.67.086-1.321.067-1.936-.022-.719-.1-1.389-.204-1.986a16 16 0 0 0-.356-1.554c-.121-.434-.23-.78-.298-1.022s-.093-.38-.05-.399c.043-.018.15.086.298.301.148.216.338.545.532.974.193.43.389.961.55 1.578.16.617.283 1.319.332 2.077a12.7 12.7 0 0 1-.066 2.304z" style="fill:#0f0;fill-rule:evenodd;stroke:#000;stroke-width:.067773;stroke-opacity:1"/><ellipse cx="3.742" cy="37.27" rx=".968" ry="1.076" style="fill:#a40;stroke:none;stroke-width:.884298;stroke-linecap:round;stroke-linejoin:bevel"/><ellipse cx="8.528" cy="42.43" rx=".968" ry="1.076" style="fill:#a40;stroke:none;stroke-width:.884298;stroke-linecap:round;stroke-linejoin:bevel"/><ellipse cx="13.269" cy="38.862" rx=".968" ry="1.076" style="fill:#a40;stroke:none;stroke-width:.884298;stroke-linecap:round;stroke-linejoin:bevel"/><ellipse cx="14.145" cy="44.374" rx=".968" ry="1.076" style="fill:#a40;stroke:none;stroke-width:.884298;stroke-linecap:round;stroke-linejoin:bevel"/><ellipse cx="3.764" cy="45.153" rx=".968" ry="1.076" style="fill:#a40;stroke:none;stroke-width:.884298;stroke-linecap:round;stroke-linejoin:bevel"/><ellipse cx="18.999" cy="39.081" rx=".968" ry="1.076" style="fill:#a40;stroke:none;stroke-width:.884298;stroke-linecap:round;stroke-linejoin:bevel"/><ellipse cx="23.419" cy="44.683" rx=".968" ry="1.076" style="fill:#a40;stroke:none;stroke-width:.884298;stroke-linecap:round;stroke-linejoin:bevel"/><ellipse cx="26.677" cy="37.816" rx=".968" ry="1.076" style="fill:#a40;stroke:none;stroke-width:.884298;stroke-linecap:round;stroke-linejoin:bevel"/><ellipse cx="29.742" cy="42.832" rx=".968" ry="1.076" style="fill:#a40;stroke:none;stroke-width:.884298;stroke-linecap:round;stroke-linejoin:bevel"/><ellipse cx="19.146" cy="47.496" rx=".968" ry="1.076" style="fill:#a40;stroke:none;stroke-width:.884298;stroke-linecap:round;stroke-linejoin:bevel"/><ellipse cx="9.697" cy="46.505" rx=".968" ry="1.076" style="fill:#a40;stroke:none;stroke-width:.884298;stroke-linecap:round;stroke-linejoin:bevel"/><ellipse cx="27.75" cy="47.985" rx=".968" ry="1.076" style="fill:#a40;stroke:none;stroke-width:.884298;stroke-linecap:round;stroke-linejoin:bevel"/><ellipse cx="2.773" cy="41.723" rx=".968" ry="1.076" style="fill:#a40;stroke:none;stroke-width:.884298;stroke-linecap:round;stroke-linejoin:bevel"/><ellipse cx="5.958" cy="48.156" rx=".968" ry="1.076" style="fill:#a40;stroke:none;stroke-width:.884298;stroke-linecap:round;stroke-linejoin:bevel"/><ellipse cx="24.403" cy="40.805" rx=".968" ry="1.076" style="fill:#a40;stroke:none;stroke-width:.884298;stroke-linecap:round;stroke-linejoin:bevel"/></svg>