<svg xmlns="http://www.w3.org/2000/svg" overflow="hidden" viewBox="332.65 275.77 236.68 319.57"><path d="M532.05 341.226h-2.75c0-13.424-6.6-25.752-17.326-33.423-11-7.67-25.025-9.588-37.675-5.205-10.45-20.273-33.55-30.683-55.549-25.478s-37.95 24.93-37.95 47.669v.547c-15.125-2.465-30.25 3.836-39.6 15.89-9.075 12.328-10.725 28.492-4.4 42.19 6.6 13.698 20.35 22.738 35.475 23.56v.274h159.5c18.15 0 32.999-14.794 32.999-32.875s-14.574-33.149-32.725-33.149"></path><path d="M558 527.529H344m214-52.794H344m214-52.794H344" stroke="#004af2" stroke-width="1.7" fill="#00f"></path><path d="M558 581.738H344M555.732 584V370" stroke="#b015ff" stroke-width="4.531" fill="purple"></path><path d="M503 421.101h-39.762V494h-29.476v-72.899H394L448.5 350Z" fill="#0f9ed5" fill-rule="evenodd"></path></svg>