<svg xmlns="http://www.w3.org/2000/svg" width="800" height="800" fill="none" viewBox="0 0 24 24"><path d="M15.836 16.13 9.026 12.2l-.75 1.299 6.81 3.932zM15.836 7.866l-6.81 3.932-.75-1.3 6.81-3.931z" style="clip-rule:evenodd;fill:#000;fill-rule:evenodd" transform="translate(7.9 7.975)scale(.54825)"/><path d="M17.85 9.15a3.15 3.15 0 1 0 0-6.3 3.15 3.15 0 0 0 0 6.3M9.3 11.994a3.15 3.15 0 1 1-6.3 0 3.15 3.15 0 0 1 6.3 0M21 17.996a3.15 3.15 0 1 0-6.3 0 3.15 3.15 0 0 0 6.3 0" style="clip-rule:evenodd;fill:#000;fill-rule:evenodd" transform="translate(7.9 7.975)scale(.54825)"/><path d="M3.227.52A2.7 2.7 0 0 0 .528 3.22v12.144a2.7 2.7 0 0 0 2.699 2.698h2.698v2.699a2.7 2.7 0 0 0 2.699 2.699h12.144a2.7 2.7 0 0 0 2.698-2.699V8.616a2.7 2.7 0 0 0-2.698-2.698h-2.699v-2.7A2.7 2.7 0 0 0 15.371.52ZM15.37 5.918v-2.7H3.227v12.145h2.698V8.616a2.7 2.7 0 0 1 2.699-2.698ZM8.624 8.616h12.144V20.76H8.624Z" style="fill:#000;fill-rule:evenodd;stroke-width:1.34932"/><path d="M288.835 490.18V288.836h402.691v402.691H288.835Zm319.137 160.213c12.063-3.614 27.223-16.716 33.829-29.236 6.891-13.06 7.325-39.544.85-51.876-11.502-21.904-28.455-32.213-52.996-32.225-17.27-.007-27.961 3.709-38.601 13.42-5.025 4.585-5.254 4.482-60.447-27.247-49.106-28.23-55.412-32.54-55.48-37.92-.068-5.42 5.83-9.483 54.944-37.848l55.02-31.776 9.82 7.113c13.172 9.542 30.673 13.189 47.016 9.796 53.593-11.126 63-85.18 13.875-109.215-11.05-5.407-15.313-6.188-29.41-5.392-31.996 1.808-52.583 22.274-54.894 54.57l-1.195 16.698-52.491 30.275-52.492 30.274-8.743-7.677c-12.54-11.01-23.648-15.055-41.45-15.096-19.008-.043-31.61 5.776-44.097 20.364-9.842 11.5-13.409 21.934-13.394 39.19.011 13.58 7.999 32.91 17.024 41.2 9.82 9.019 26.196 15.02 41.142 15.077 16.652.063 28.79-4.602 40.073-15.403l8.39-8.03 52.732 30.62 52.734 30.622 1.422 15.279c1.8 19.347 6.392 29.74 18.1 40.973 15.377 14.75 37.503 19.826 58.719 13.47z" style="fill:#fff;stroke:#000;stroke-width:9.05942;stroke-linecap:square;stroke-linejoin:round;-inkscape-stroke:none;paint-order:markers fill stroke;stop-color:#000" transform="scale(.03)"/><path d="M109.062 310.408V109.062h402.692v86.085l-121.647.703c-120.357.694-121.79.76-135.195 6.18-25.835 10.445-42.217 26.974-53.066 53.541-5.143 12.595-5.28 15.672-6.018 134.536l-.755 121.647h-86.011z" style="fill:#fff;stroke:#000;stroke-width:9.05942;stroke-linecap:square;stroke-linejoin:round;-inkscape-stroke:none;paint-order:markers fill stroke;stop-color:#000" transform="scale(.03)"/></svg>