<svg xmlns="http://www.w3.org/2000/svg" width="128" height="120.351" viewBox="0 0 2.56 2.407"><path fill="#ff15a1" stroke="#373737" stroke-width=".079" d="M1.682 1.517a.79.79 0 1 1-1.58 0 .79.79 0 1 1 1.58 0z"/><path fill="#1583ff" d="M1.287.079a.79.79 0 0 0-.393 1.475l-.002-.037A.79.79 0 0 1 2.076.832a.79.79 0 0 0-.789-.753"/><path fill="#00cf2d" d="M1.682.727a.79.79 0 0 0-.79.79l.002.037A.79.79 0 0 0 2.078.869L2.076.832a.8.8 0 0 0-.393-.105z"/><path fill="#f8ff15" d="m2.076.832.002.037a.79.79 0 0 1-1.183.685.79.79 0 0 0 1.552.167.79.79 0 0 0-.37-.889z"/><path fill="#ef0000" d="M.894 1.554a.79.79 0 0 0 .393.647.79.79 0 0 0 .393-.646.79.79 0 0 1-.786 0z"/><path fill="#383027" d="M1.287.833a.79.79 0 0 0-.395.684l.002.037a.78.78 0 0 0 .786 0l.002-.037a.79.79 0 0 0-.395-.684"/><path fill="#5100cc" d="M.892.727a.8.8 0 0 0-.394.106.79.79 0 0 0 .396.721l-.002-.037a.79.79 0 0 1 .395-.684.8.8 0 0 0-.395-.106"/><path fill="none" stroke="#373737" stroke-width=".158" d="M1.287.079a.79.79 0 0 0-.789.754.79.79 0 0 0-.01 1.378.79.79 0 0 0 .799-.01.79.79 0 0 0 1.184-.685.79.79 0 0 0-.396-.684.79.79 0 0 0-.788-.753z"/></svg>