<svg xmlns="http://www.w3.org/2000/svg" width="861.746" height="861.746" class="icon" viewBox="0 0 1103.035 1103.035"><path fill="#4a5699" d="M1003.575 202.352H100.742c-25.477 0-46.13 21.177-46.13 47.298v7.139c0 26.121 20.653 47.296 46.13 47.296h902.833c25.48 0 46.13-21.175 46.13-47.296v-7.139c0-26.121-20.65-47.298-46.13-47.298"/><path fill="#c45fa0" d="M1003.575 837.303H100.742c-25.477 0-46.13 21.173-46.13 47.296v7.141c0 26.119 20.653 47.297 46.13 47.297h902.833c25.48 0 46.13-21.178 46.13-47.297v-7.141c0-26.123-20.65-47.296-46.13-47.296"/><path fill="#f39a2b" d="M107.705 202.352h-7.082c-26.121 0-47.294 21.177-47.294 47.298v642.09c0 26.119 21.173 47.297 47.294 47.297h7.082c26.12 0 47.294-21.178 47.294-47.297V249.65c0-26.121-21.173-47.298-47.294-47.298m894.705 0h-7.082c-26.12 0-47.296 21.177-47.296 47.298v642.09c0 26.119 21.177 47.297 47.296 47.297h7.082c26.122 0 47.296-21.178 47.296-47.297V249.65c0-26.121-21.174-47.298-47.296-47.298"/><path fill="#e5594f" d="M464.91 451.424h-7.082c-26.121 0-47.296 21.171-47.296 47.294v38.715c0 26.119 21.175 47.296 47.296 47.296h7.082c26.12 0 47.298-21.177 47.298-47.296v-38.715c0-26.122-21.177-47.294-47.298-47.294m175.295 0h-7.082c-26.118 0-47.292 21.171-47.292 47.294v38.715c0 26.119 21.174 47.296 47.292 47.296h7.082c26.119 0 47.3-21.177 47.3-47.296v-38.715c0-26.122-21.181-47.294-47.3-47.294m175.299 0h-7.082c-26.122 0-47.296 21.171-47.296 47.294v38.715c0 26.119 21.174 47.296 47.296 47.296h7.082c26.119 0 47.292-21.177 47.292-47.296v-38.715c0-26.122-21.173-47.294-47.292-47.294m0 175.402h-7.082c-26.122 0-47.296 21.17-47.296 47.293v38.716c0 26.115 21.174 47.293 47.296 47.293h7.082c26.119 0 47.292-21.178 47.292-47.293v-38.716c0-26.123-21.173-47.293-47.292-47.293m-175.3 0h-7.081c-26.118 0-47.292 21.17-47.292 47.293v38.716c0 26.115 21.174 47.293 47.292 47.293h7.082c26.119 0 47.3-21.178 47.3-47.293v-38.716c0-26.123-21.181-47.293-47.3-47.293m-175.294 0h-7.082c-26.121 0-47.296 21.17-47.296 47.293v38.716c0 26.115 21.175 47.293 47.296 47.293h7.082c26.12 0 47.298-21.178 47.298-47.293v-38.716c0-26.123-21.177-47.293-47.298-47.293m-175.297 0h-7.08c-26.123 0-47.294 21.17-47.294 47.293v38.716c0 26.115 21.17 47.293 47.294 47.293h7.08c26.123 0 47.294-21.178 47.294-47.293v-38.716c0-26.123-21.171-47.293-47.294-47.293"/><path fill="#6277ba" d="M337.538 107.52h-7.435c-26.125 0-47.296 19.988-47.296 44.649v175.677c0 24.657 21.17 44.649 47.296 44.649h7.435c26.125 0 47.296-19.992 47.296-44.649V152.169c0-24.661-21.172-44.649-47.296-44.649m420.71 0h-7.437c-26.118 0-47.292 19.988-47.292 44.649v175.677c0 24.657 21.174 44.649 47.292 44.649h7.438c26.123 0 47.296-19.992 47.296-44.649V152.169c0-24.661-21.173-44.649-47.296-44.649"/><path d="M123.444 445.837V238.499h95.879v11.477c0 15.322 8.223 31.17 19.138 36.884 10.134 5.305 33.387 5.852 42.703 1.004 13.767-7.162 18.242-14.763 19.255-32.703l.942-16.662h246.347v11.228c0 13.402 7.042 28.816 16.215 35.489 4.679 3.404 11.36 5.007 23.335 5.598 14.458.713 17.91.053 24.948-4.77 12.58-8.621 16.83-16.087 18.532-32.564l1.547-14.981h107.18v414.676h-616.02Zm119.94 144.417c15.96-8.048 21.481-20.523 21.481-48.538 0-37.285-12.385-52.697-42.37-52.721-16.567-.014-24.32 4.11-33.733 17.94-4.779 7.021-5.394 10.903-5.394 34.056 0 27.853 1.902 34.562 12.643 44.593 11.708 10.935 31.15 12.851 47.373 4.67zm135.575.826c5.403-2.454 12.415-8.093 15.58-12.531 5.308-7.442 5.755-10.307 5.755-36.833 0-26.28-.482-29.44-5.582-36.59-11.505-16.131-35.016-21.505-53.003-12.114-17.618 9.198-20.39 15.031-21.315 44.87-.929 29.911 1.862 39.418 14.329 48.816 13.172 9.93 28.645 11.463 44.236 4.382zm137.54-.826c18.306-9.354 20.423-14.385 20.423-48.538 0-26.102-.585-30.413-4.934-36.378-6.394-8.769-23.719-17.554-34.616-17.554-10.898 0-28.223 8.785-34.616 17.554-4.35 5.965-4.934 10.276-4.934 36.378 0 26.101.584 30.412 4.934 36.378 6.393 8.768 23.718 17.554 34.616 17.554 4.714 0 13.321-2.427 19.127-5.394zm143.091-3.156c12.924-9.857 15.695-19.095 14.76-49.215-.926-29.84-3.697-35.673-21.315-44.871-8.419-4.395-13.077-5.29-22.263-4.28-26.825 2.95-37.521 18.055-37.521 52.984 0 17.794.982 23.702 5.393 32.45 10.86 21.535 41.22 27.977 60.946 12.932zm-275.192-135.85c12.349-7.577 16.98-20.347 17.042-46.996.061-26.039-3.36-35.587-16.277-45.44-7.26-5.539-10.769-6.457-24.656-6.457-17.5 0-24.582 3.399-34.37 16.496-4.06 5.43-5.093 10.952-5.781 30.882-.461 13.347.33 28.167 1.757 32.933 6.96 23.23 39.09 32.816 62.285 18.582zm134.957 1.532c3.521-1.801 8.914-6.797 11.985-11.102 5.11-7.165 5.582-10.29 5.582-37.013 0-31.796-1.53-36.19-16.504-47.368-9.455-7.06-36.637-7.06-46.093 0-14.466 10.8-16.445 15.968-17.22 44.962-.784 29.375 2.012 38.659 14.438 47.936 11.934 8.91 33.202 10.06 47.812 2.585zm137.153-.474c14.457-8.468 16.966-14.889 17.818-45.586.723-26.042.388-28.57-4.793-36.167-9.837-14.424-17.166-18.199-35.314-18.192-13.877.006-17.398.928-24.647 6.457-12.786 9.753-16.321 19.453-16.321 44.786 0 25.468 4.245 38.61 14.929 46.218 13.778 9.811 34.04 10.853 48.328 2.484z" style="fill:#ececec;stroke:#000;stroke-width:9.05942;stroke-linecap:square;stroke-linejoin:round;-inkscape-stroke:none;paint-order:markers fill stroke;stop-color:#000" transform="scale(1.28)"/></svg>