<svg xmlns="http://www.w3.org/2000/svg" xml:space="preserve" viewBox="0 0 512 512"><path d="M11.253 36.571v438.857c0 13.983 11.336 25.319 25.319 25.319h438.857c13.983 0 25.319-11.336 25.319-25.319V120.404L391.596 11.253H36.571c-13.982 0-25.318 11.336-25.318 25.318" style="fill:#5a6b96"/><path d="M95.164 11.253h258.813v146.286H95.164z" style="fill:#efefef"/><path d="M297.635 11.253h56.343v146.286h-56.343z" style="fill:#d1d5d8"/><path d="M88.897 256h334.207v59.077H88.897zM88.897 315.077h334.207v45.574H88.897zM353.055 360.651h70.048v46.698H88.897v-46.698H264.44zM88.897 407.349h334.207v46.699H88.897z" style="fill:#efefef"/><path d="M88.897 454.048h334.207v46.699H88.897z" style="fill:#ff7d46"/><path d="M508.704 112.448 399.552 3.296A11.25 11.25 0 0 0 391.596 0H36.571C16.407 0 0 16.407 0 36.571v438.857C0 495.594 16.407 512 36.571 512h438.857C495.594 512 512 495.594 512 475.429V120.404a11.25 11.25 0 0 0-3.296-7.956M342.729 22.505v123.78h-33.841V22.505zm-56.347 0v123.78h-179.96V22.505zm125.469 326.893h-58.796c-6.215 0-11.253 5.038-11.253 11.253s5.038 11.253 11.253 11.253h58.796v24.193H100.149v-24.193h164.29c6.215 0 11.253-5.038 11.253-11.253s-5.038-11.253-11.253-11.253h-164.29V326.33H411.85zm-311.702 69.204H411.85v24.193H100.149zm311.702-114.778H100.149v-36.571H411.85zM100.149 489.495v-24.193H411.85v24.193zm389.346-14.066c0 7.757-6.309 14.066-14.066 14.066h-41.073V256c0-6.215-5.038-11.253-11.253-11.253H88.897c-6.215 0-11.253 5.038-11.253 11.253v233.495H36.571c-7.757 0-14.066-6.309-14.066-14.066V36.571c0-7.757 6.309-14.066 14.066-14.066h47.345v135.033c0 6.215 5.038 11.253 11.253 11.253h258.813c6.215 0 11.253-5.038 11.253-11.253V22.505h21.7l102.56 102.56z" style="fill:#231f20"/><path d="M307.2 371.903h1.125c6.215 0 11.253-5.038 11.253-11.253s-5.038-11.253-11.253-11.253H307.2c-6.215 0-11.253 5.038-11.253 11.253s5.038 11.253 11.253 11.253" style="fill:#231f20"/></svg>