<svg xmlns="http://www.w3.org/2000/svg" width="800" height="1600" viewBox="0 0 512 1024"><path fill="#8ae9ff" d="M501.498 975.177V839.909a37.92 37.92 0 0 0-11.179-26.988c-7.209-7.209-16.793-11.179-26.988-11.179a37.92 37.92 0 0 0-26.988 11.178c-7.21 7.21-11.179 16.795-11.179 26.989l.001 43.125-115.111-115.11L425.466 652.51v43.125a37.92 37.92 0 0 0 11.179 26.989c7.209 7.209 16.794 11.178 26.99 11.178s19.778-3.971 26.987-11.178a37.92 37.92 0 0 0 11.179-26.988V560.368c-.001-10.194-3.971-19.778-11.179-26.988a37.92 37.92 0 0 0-26.988-11.179H328.365a37.92 37.92 0 0 0-26.988 11.179c-7.209 7.209-11.179 16.793-11.179 26.988a37.92 37.92 0 0 0 11.178 26.988c7.21 7.21 16.795 11.179 26.989 11.179l43.125-.001-115.413 115.413-115.11-115.11h43.125a37.92 37.92 0 0 0 26.989-11.179c7.209-7.209 11.178-16.794 11.178-26.99s-3.97-19.778-11.178-26.987-16.794-11.178-26.988-11.179H48.824c-10.194.001-19.778 3.971-26.988 11.179a37.92 37.92 0 0 0-11.179 26.988v135.27a37.92 37.92 0 0 0 11.179 26.988c7.209 7.209 16.793 11.179 26.988 11.179a37.92 37.92 0 0 0 26.988-11.178c7.21-7.21 11.179-16.795 11.179-26.989v-43.125l115.11 115.109L86.534 883.49v-43.125a37.92 37.92 0 0 0-11.179-26.989c-7.209-7.209-16.794-11.178-26.99-11.178a37.92 37.92 0 0 0-26.987 11.178 37.92 37.92 0 0 0-11.179 26.988v135.269c.001 10.194 3.971 19.778 11.179 26.988a37.92 37.92 0 0 0 26.988 11.179h135.269a37.92 37.92 0 0 0 26.988-11.179c7.209-7.209 11.179-16.793 11.179-26.988a37.92 37.92 0 0 0-11.178-26.988c-7.21-7.21-16.795-11.179-26.989-11.179l-43.125.001L256.075 821.9l115.11 115.109-43.125-.001c-10.195.001-19.78 3.971-26.989 11.179s-11.178 16.794-11.178 26.99 3.97 19.778 11.178 26.987a37.92 37.92 0 0 0 26.988 11.179h135.269c10.194-.001 19.778-3.971 26.988-11.179s11.181-16.792 11.182-26.987"/><path fill="#248a9c" d="M48.367 1024c-12.92-.001-25.066-5.032-34.2-14.167A48.05 48.05 0 0 1 0 975.634v-135.27a48.05 48.05 0 0 1 14.167-34.2 48.05 48.05 0 0 1 34.199-14.167c12.919 0 25.066 5.03 34.201 14.166s14.167 21.281 14.168 34.2v18.502l90.941-90.943-90.486-90.486v18.502c.001 12.918-5.03 25.065-14.166 34.201a48.05 48.05 0 0 1-34.2 14.167 48.04 48.04 0 0 1-34.2-14.168C5.489 721.004.457 708.857.457 695.938L.456 560.67a48.05 48.05 0 0 1 14.168-34.2 48.05 48.05 0 0 1 34.198-14.167h135.271c12.919 0 25.065 5.032 34.2 14.167a48.05 48.05 0 0 1 14.166 34.198c.001 12.919-5.03 25.067-14.166 34.202a48.05 48.05 0 0 1-34.2 14.167H165.59l90.487 90.486 90.789-90.789h-18.501c-12.92 0-25.067-5.031-34.201-14.167s-14.166-21.28-14.167-34.199a48.04 48.04 0 0 1 14.167-34.2c9.135-9.134 21.282-14.167 34.2-14.168h135.27c12.92.001 25.066 5.032 34.2 14.167s14.166 21.28 14.167 34.199v135.27a48.05 48.05 0 0 1-48.366 48.367c-12.919 0-25.066-5.03-34.201-14.166s-14.167-21.281-14.168-34.2v-18.502l-90.789 90.789 90.486 90.486v-18.501c0-12.919 5.031-25.066 14.167-34.201a48.05 48.05 0 0 1 34.2-14.167 48.04 48.04 0 0 1 34.2 14.168c9.135 9.134 14.167 21.281 14.167 34.2l.001 135.269c-.001 12.919-5.033 25.065-14.168 34.2a48.05 48.05 0 0 1-34.198 14.167H328.061c-12.919 0-25.065-5.032-34.199-14.167a48.05 48.05 0 0 1-14.167-34.199 48.04 48.04 0 0 1 14.167-34.202c9.133-9.134 21.279-14.166 34.2-14.167h18.501l-90.486-90.486-90.942 90.943h18.501c12.92 0 25.067 5.031 34.201 14.167s14.166 21.28 14.167 34.199a48.04 48.04 0 0 1-14.167 34.2 48.05 48.05 0 0 1-34.2 14.167zm0-211.604a27.78 27.78 0 0 0-19.776 8.192c-5.282 5.282-8.191 12.305-8.192 19.777v135.268a27.8 27.8 0 0 0 8.192 19.775 27.8 27.8 0 0 0 19.777 8.193h135.268a27.8 27.8 0 0 0 19.777-8.192c5.282-5.282 8.191-12.305 8.192-19.776a27.8 27.8 0 0 0-8.192-19.775 27.78 27.78 0 0 0-19.777-8.192h-43.124a10.2 10.2 0 0 1-7.212-17.411l115.566-115.566a10.203 10.203 0 0 1 14.424 0l115.109 115.109a10.2 10.2 0 0 1-7.212 17.411h-43.124c-7.471 0-14.495 2.91-19.777 8.192a27.78 27.78 0 0 0-8.191 19.777 27.79 27.79 0 0 0 27.968 27.968h135.269a27.8 27.8 0 0 0 19.775-8.193c5.283-5.282 8.192-12.305 8.193-19.776l-.001-135.268c0-7.471-2.91-14.493-8.191-19.776a27.78 27.78 0 0 0-19.777-8.193c-7.472-.001-14.494 2.91-19.776 8.192a27.78 27.78 0 0 0-8.192 19.777l.001 43.125a10.2 10.2 0 0 1-6.296 9.423 10.2 10.2 0 0 1-11.115-2.21L302.841 775.135a10.2 10.2 0 0 1 0-14.424l115.413-115.413a10.2 10.2 0 0 1 17.411 7.213l-.001 43.125c.001 7.47 2.911 14.494 8.192 19.777s12.306 8.191 19.777 8.191a27.78 27.78 0 0 0 19.776-8.192c5.282-5.282 8.191-12.305 8.192-19.777V560.367a27.79 27.79 0 0 0-27.969-27.968H328.364a27.8 27.8 0 0 0-19.777 8.192c-5.282 5.282-8.191 12.305-8.192 19.776a27.8 27.8 0 0 0 8.192 19.775 27.78 27.78 0 0 0 19.777 8.192h43.124a10.2 10.2 0 0 1 7.212 17.411L263.288 721.159c-3.984 3.983-10.44 3.983-14.425 0l-115.109-115.11a10.2 10.2 0 0 1 7.212-17.411h43.125c7.472 0 14.495-2.91 19.777-8.192a27.78 27.78 0 0 0 8.191-19.777 27.8 27.8 0 0 0-8.191-19.776 27.78 27.78 0 0 0-19.776-8.192H48.823a27.78 27.78 0 0 0-19.775 8.192c-5.283 5.282-8.192 12.306-8.193 19.777l.001 135.268c0 7.471 2.91 14.493 8.192 19.776a27.78 27.78 0 0 0 19.776 8.193 27.8 27.8 0 0 0 19.777-8.192c5.282-5.282 8.191-12.305 8.19-19.775v-43.126a10.2 10.2 0 0 1 17.411-7.213L209.311 760.71a10.2 10.2 0 0 1 0 14.424L93.746 890.702a10.2 10.2 0 0 1-11.115 2.211 10.2 10.2 0 0 1-6.296-9.423l.001-43.125c-.001-7.47-2.911-14.494-8.192-19.777a27.78 27.78 0 0 0-19.777-8.192m-.089-167.384a10.2 10.2 0 0 1-10.199-10.199v-2.158a10.2 10.2 0 0 1 10.199-10.199 10.2 10.2 0 0 1 10.199 10.199v2.158a10.2 10.2 0 0 1-10.199 10.199m0-39.483a10.2 10.2 0 0 1-10.199-10.199v-35.673a10.2 10.2 0 0 1 10.199-10.199 10.2 10.2 0 0 1 10.199 10.199v35.673a10.2 10.2 0 0 1-10.199 10.199"/><path fill="#8ae9ff" d="M227.486 257.208H54.439c-15.063 0-27.318 12.255-27.318 27.318s12.255 27.318 27.318 27.318h107.094L18.001 455.377a27.14 27.14 0 0 0 0 38.634c5.326 5.326 12.321 7.988 19.317 7.988s13.991-2.663 19.317-7.988l143.532-143.533v107.095c0 15.063 12.255 27.318 27.318 27.318a27.14 27.14 0 0 0 19.317-8.001c5.16-5.16 8.001-12.02 8.001-19.317V284.526c0-7.297-2.841-14.157-8.001-19.317s-12.019-8.001-19.316-8.001"/><path fill="#248a9c" d="M37.319 512c-9.977 0-19.349-3.877-26.389-10.917C3.882 494.034 0 484.663 0 474.694s3.882-19.339 10.93-26.388l126.461-126.461H54.439c-20.577 0-37.318-16.741-37.318-37.318s16.741-37.318 37.318-37.318h173.047c9.968 0 19.339 3.882 26.388 10.93s10.93 16.42 10.93 26.388v173.047a37.07 37.07 0 0 1-10.93 26.388c-7.05 7.048-16.421 10.93-26.389 10.93-20.578 0-37.318-16.741-37.318-37.318v-82.953L63.707 501.083C56.667 508.123 47.295 512 37.319 512m17.12-244.792c-9.549 0-17.318 7.769-17.318 17.318s7.769 17.318 17.318 17.318h107.094c4.044 0 7.691 2.437 9.239 6.173a10 10 0 0 1-2.167 10.898L25.073 462.449A17.2 17.2 0 0 0 20 474.695a17.2 17.2 0 0 0 5.073 12.246c3.262 3.263 7.611 5.06 12.246 5.06s8.983-1.797 12.246-5.06l143.532-143.533a10 10 0 0 1 10.898-2.167 10 10 0 0 1 6.173 9.239v107.095c0 9.549 7.769 17.318 17.318 17.318a17.2 17.2 0 0 0 12.247-5.073 17.2 17.2 0 0 0 5.072-12.245V284.526c0-4.626-1.801-8.975-5.072-12.246s-7.62-5.073-12.246-5.073z"/><path fill="#8ae9ff" d="M502 37.575a27.14 27.14 0 0 0-8.001-19.317c-10.651-10.651-27.982-10.652-38.634 0L311.832 161.79V54.696c0-15.063-12.255-27.318-27.318-27.318a27.14 27.14 0 0 0-19.317 8.001c-5.16 5.16-8.001 12.02-8.001 19.317v173.047c0 7.297 2.841 14.157 8.001 19.317a27.14 27.14 0 0 0 19.317 8.001h173.047c15.063 0 27.318-12.255 27.318-27.318s-12.255-27.318-27.318-27.318H350.466L493.999 56.892A27.14 27.14 0 0 0 502 37.575"/><path fill="#248a9c" d="M457.561 265.061H284.514c-9.968 0-19.339-3.882-26.388-10.93s-10.93-16.42-10.93-26.388V54.696a37.07 37.07 0 0 1 10.93-26.388c7.05-7.048 16.421-10.93 26.389-10.93 20.578 0 37.318 16.741 37.318 37.318v82.953l126.46-126.463c14.55-14.55 38.226-14.55 52.777 0C508.118 18.235 512 27.607 512 37.575s-3.882 19.339-10.93 26.388L374.608 190.425h82.952c20.577 0 37.318 16.741 37.318 37.318s-16.74 37.318-37.317 37.318M284.514 37.377a17.2 17.2 0 0 0-12.247 5.073 17.2 17.2 0 0 0-5.072 12.245v173.048c0 4.626 1.801 8.975 5.072 12.246s7.62 5.073 12.246 5.073H457.56c9.549 0 17.318-7.769 17.318-17.318s-7.769-17.318-17.318-17.318H350.466a10 10 0 0 1-9.239-6.173 10 10 0 0 1 2.167-10.897L486.927 49.821A17.2 17.2 0 0 0 492 37.575a17.2 17.2 0 0 0-5.073-12.246c-6.751-6.752-17.739-6.753-24.492 0L318.903 168.862a10 10 0 0 1-10.898 2.167 10 10 0 0 1-6.173-9.239V54.696c0-9.55-7.769-17.319-17.318-17.319M227 400.135a10 10 0 0 1-10-10v-2.76a10 10 0 1 1 20 0v2.76a10 10 0 0 1-10 10m0-29.867a10 10 0 0 1-10-10v-72.684a10 10 0 1 1 20 0v72.684a10 10 0 0 1-10 10"/></svg>