<svg xmlns="http://www.w3.org/2000/svg" xml:space="preserve" width="800" height="800" viewBox="0 0 280.028 280.028"><path d="M140.014.005C62.691.005 0 62.688 0 140.01s62.691 140.014 140.014 140.014c77.331 0 140.014-62.691 140.014-140.014S217.345.005 140.014.005m0 201.261c-33.831 0-61.256-27.425-61.256-61.256 0-33.822 27.425-61.256 61.256-61.256s61.256 27.434 61.256 61.256c0 33.83-27.426 61.256-61.256 61.256" style="fill:#e4e7e7"/><path d="M140.014.005C62.691.005 0 62.688 0 140.01s62.691 140.014 140.014 140.014c77.331 0 140.014-62.691 140.014-140.014S217.345.005 140.014.005m0 201.261c-33.831 0-61.256-27.425-61.256-61.256 0-33.822 27.425-61.256 61.256-61.256s61.256 27.434 61.256 61.256c0 33.83-27.426 61.256-61.256 61.256" style="fill:#e4e7e7"/><path d="M140.014 279.988C62.656 279.988 0 217.333 0 139.975 0 99.371 17.239 62.793 44.892 37.328 22.402 62.18 8.751 95.083 8.751 131.224c0 77.358 62.656 140.014 140.014 140.014 36.229 0 69.307-13.739 94.159-36.316-25.553 27.739-62.219 45.066-102.91 45.066M201.27 139.975c0-33.778-27.39-61.256-61.256-61.256-14.701 0-28.178 5.163-38.679 13.826 11.201-13.739 28.265-22.577 47.43-22.577 33.866 0 61.256 27.478 61.256 61.256 0 19.164-8.751 36.229-22.577 47.43 8.663-10.502 13.826-23.978 13.826-38.679" style="fill:#cdcfcf"/><path d="M111.827 85.659c8.445-4.384 18.018-6.904 28.187-6.904 10.168 0 19.742 2.52 28.187 6.904L182.57 6.63A139.9 139.9 0 0 0 140.015.006a139.8 139.8 0 0 0-42.547 6.633zM85.662 168.197a60.9 60.9 0 0 1-6.904-28.187c0-10.168 2.52-19.733 6.904-28.178L6.633 97.464C2.354 110.887 0 125.169 0 140.01s2.354 29.123 6.633 42.547zM194.365 111.833c4.384 8.445 6.904 18.009 6.904 28.178s-2.512 19.742-6.904 28.187l79.029 14.369c4.279-13.433 6.633-27.714 6.633-42.555s-2.354-29.123-6.633-42.547zM168.2 194.361a60.9 60.9 0 0 1-28.187 6.904c-10.169 0-19.742-2.512-28.187-6.904L97.458 273.39a139.8 139.8 0 0 0 42.547 6.633c14.841 0 29.123-2.354 42.547-6.633z" style="fill:#e2574c"/><path d="M140.014 279.988C62.656 279.988 0 217.333 0 139.975 0 99.371 17.239 62.793 44.892 37.328 22.402 62.18 8.751 95.083 8.751 131.224c0 77.358 62.656 140.014 140.014 140.014 36.229 0 69.307-13.739 94.159-36.316-25.553 27.739-62.219 45.066-102.91 45.066" style="fill:#cdcfcf"/><path d="M170.327 73.95c-6.712-2.529-13.958-3.982-21.562-3.982-14.133 0-27.11 4.83-37.445 12.873l.516 2.818a61 61 0 0 1 6.327-2.835c1.129-.429 2.301-.744 3.465-1.111a60 60 0 0 1 5.671-1.523 62 62 0 0 1 3.588-.665 61 61 0 0 1 7.823-.683c.429-.017.849-.123 1.304-.123 2.511 0 4.97.193 7.403.49.14.009.263.044.403.061 2.266.289 4.489.709 6.668 1.243l.613.158a59 59 0 0 1 6.519 2.048l.079.026c2.231.849 4.41 1.794 6.511 2.888zM197.165 118.081c.096.245.184.499.263.735a62 62 0 0 1 1.785 5.671c.123.473.245.936.359 1.409.42 1.785.753 3.597 1.015 5.443.079.534.184 1.05.236 1.584.271 2.319.446 4.673.446 7.053v.027c0 3.255-.341 6.406-.84 9.521a53 53 0 0 1-.499 2.66 62 62 0 0 1-1.934 7.219c-.21.63-.376 1.295-.604 1.925a62 62 0 0 1-3.037 6.861l2.8.516c8.068-10.344 12.864-23.33 12.864-37.48 0-7.578-1.444-14.815-3.964-21.518l-11.674 2.118a60 60 0 0 1 2.784 6.256M17.843 180.527c-5.784-15.358-9.092-31.923-9.092-49.302 0-11.271 1.47-22.166 3.973-32.658l-6.091-1.103c-.184.604-.324 1.234-.516 1.829-.919 3.072-1.794 6.161-2.511 9.311-.394 1.724-.7 3.474-1.033 5.224a138 138 0 0 0-1.321 8.322c-.201 1.523-.403 3.054-.543 4.585-.411 4.332-.691 8.698-.691 13.135-.009.043-.018.079-.018.123 0 4.34.263 8.62.648 12.864.14 1.444.333 2.87.516 4.297.333 2.757.753 5.496 1.251 8.2.306 1.68.621 3.36.989 5.023.56 2.529 1.234 5.023 1.934 7.499.438 1.549.805 3.115 1.286 4.638 0 .018.009.026.009.044zM181.44 267.255c-10.501 2.512-21.405 3.982-32.676 3.982-17.362 0-33.918-3.308-49.259-9.075l-2.03 11.201c.096.035.184.079.28.105 1.041.333 2.126.578 3.177.893 3.019.875 6.056 1.671 9.145 2.354 1.304.289 2.634.534 3.955.779 3.185.595 6.414 1.103 9.678 1.479.989.122 1.978.254 2.975.35 4.393.411 8.83.665 13.328.665 4.682 0 9.293-.289 13.853-.735 1.033-.105 2.039-.236 3.072-.359 3.518-.429 7.001-.998 10.431-1.671 1.155-.228 2.328-.429 3.465-.691a142 142 0 0 0 11.717-3.168z" style="fill:#cb4e44"/></svg>