<svg xmlns="http://www.w3.org/2000/svg" width="800" height="800" class="icon" viewBox="0 0 1024 1024"><path fill="#424242" d="M192 234.667h640v64H192z"/><path fill="#616161" d="M85.333 533.333h853.334V384c0-46.933-38.4-85.333-85.334-85.333H170.667c-46.934 0-85.334 38.4-85.334 85.333z"/><path fill="#424242" d="M170.667 768h682.666c46.934 0 85.334-38.4 85.334-85.333V512H85.333v170.667c0 46.933 38.4 85.333 85.334 85.333"/><path fill="#00e676" d="M832 384a21.333 21.333 0 1 0 42.667 0A21.333 21.333 0 1 0 832 384"/><path fill="#90caf9" d="M234.667 85.333h554.666v213.334H234.667z" style="fill:#fff"/><path fill="#242424" d="M800 661.333H224c-17.067 0-32-14.933-32-32s14.933-32 32-32h576c17.067 0 32 14.934 32 32s-14.933 32-32 32"/><path fill="#90caf9" d="M234.667 661.333h554.666V896H234.667z" style="fill:#fff"/><path fill="#42a5f5" d="M234.667 618.667h554.666v42.666H234.667z"/><path fill="#1976d2" d="M341.333 704H704v42.667H341.333zm0 85.333h277.334V832H341.333z"/></svg>