<svg xmlns="http://www.w3.org/2000/svg" xmlns:xlink="http://www.w3.org/1999/xlink" width="128" height="256" viewBox="0 0 33.867 67.733"><defs><linearGradient id="b" x1="-60.408" x2="-68.023" y1="169.434" y2="191.841" gradientUnits="userSpaceOnUse"><stop offset=".254" stop-color="#90d856"/><stop offset=".736" stop-color="#0c0"/><stop offset=".772" stop-color="#0bcd07"/><stop offset=".834" stop-color="#29cf18"/><stop offset=".917" stop-color="#59d335"/><stop offset="1" stop-color="#90d856"/></linearGradient><linearGradient id="a" x1="-59.847" x2="-65.693" y1="155.217" y2="192.129" gradientUnits="userSpaceOnUse"><stop stop-color="#0c0"/><stop offset=".188" stop-color="#06c102"/><stop offset=".519" stop-color="#17a306"/><stop offset=".951" stop-color="#33740c"/><stop offset="1" stop-color="#366e0d"/></linearGradient><linearGradient xlink:href="#a" id="i"/><linearGradient xlink:href="#b" id="j"/><linearGradient xlink:href="#a" id="d"/><linearGradient xlink:href="#b" id="f"/><radialGradient id="h" cx="0" cy="0" r="1" gradientTransform="rotate(155.316 -52.245 85.713)scale(9.55021 4.04264)" gradientUnits="userSpaceOnUse"><stop stop-color="#440063" stop-opacity=".25"/><stop offset="1" stop-color="#420061" stop-opacity="0"/></radialGradient><radialGradient id="g" cx="0" cy="0" r="1" gradientTransform="rotate(116.129 -85.44 70.012)scale(8.14338 4.1733)" gradientUnits="userSpaceOnUse"><stop stop-color="#fbe07a" stop-opacity=".75"/><stop offset=".08" stop-color="#fbe387" stop-opacity=".69"/><stop offset=".517" stop-color="#fdf2c7" stop-opacity=".362"/><stop offset=".836" stop-color="#fffbf0" stop-opacity=".123"/><stop offset="1" stop-color="#fff" stop-opacity="0"/></radialGradient><path id="c" d="M-70.473 180.768c-.618 0-1.236.256-1.676.757-.395.445-.59 1.019-.551 1.615s.306 1.136.752 1.531l4.003 3.513c.406.356.93.557 1.47.557l.184-.006a2.23 2.23 0 0 0 1.542-.813l9.805-12.004a2.235 2.235 0 0 0-.317-3.14 2.22 2.22 0 0 0-1.631-.49 2.22 2.22 0 0 0-1.503.807l-8.346 10.211-2.266-1.988a2.23 2.23 0 0 0-1.464-.551z"/><path id="e" d="M-66.475 188.34a1.82 1.82 0 0 1-1.208-.457l-4.003-3.513c-.757-.668-.835-1.826-.167-2.583s1.826-.835 2.583-.167l2.578 2.26 8.602-10.534a1.837 1.837 0 0 1 2.578-.262c.785.64.896 1.793.262 2.578l-9.81 12.004a1.85 1.85 0 0 1-1.264.668l-.15.006z"/></defs><g transform="scale(10.77895)"><circle cx="1.571" cy="4.713" r="1.571" fill="#46afed"/><path fill="#ff2d00" d="m.981 4.557-.013.03-.008.025q.059.017.085.064.025.042.042.093l-.004-.013q0 .017.004.025v-.004q.008.008.038.03.034.021.08.042.11.055.161.055.127 0 .195-.076.068-.08.055-.203-.038-.203-.178-.322h.004l-.144-.102q-.068-.051-.114-.097-.008.021-.021.042l-.017.042q-.038.076-.08.169l-.085.199zm1.579-.072v.021q0 .004-.008.025v.004q-.301.715-1.012.715h-.174q-.182 0-.385-.127-.119-.059-.186-.152l-.013.021q0 .008-.004.017v-.004q-.08.182-.195.182-.178 0-.178-.169 0-.042.042-.123L.443 4.9q.072-.174.152-.339.08-.169.152-.339v.004q.034-.085.085-.186.051-.106.11-.216-.017-.021-.03-.042l-.017-.051q-.008-.199.144-.254.055-.017.11-.008.059.004.102.038.047.034.072.093t.013.14l-.004.017q-.008.03-.004.021t.004-.004q.051.059.123.114l.165.127q.284.224.322.508.004.03.004.068.004.038.004.072v.064q0 .025-.004.055.114-.085.195-.229l.038-.064q.021-.034.03-.059l.03-.042q.047-.072.14-.072.182 0 .182.169z"/><path d="M1.021 4.477q-.021.047-.042.08-.021.03-.042.051.08.008.106.055t.047.102l-.004-.013q0 .017.004.025v-.004q.017.021.119.076.114.051.161.051.127 0 .195-.076t.055-.203q-.038-.203-.178-.318h.004q-.157-.11-.258-.199-.03.059-.055.123-.038.089-.068.152l-.042.102zm.313.779q-.212-.038-.356-.127l.004.004q-.25-.148-.25-.351 0-.076.042-.127-.127-.017-.127-.169 0-.013.008-.042.004-.034.025-.076.013-.03.034-.072.017-.047.034-.072.034-.08.085-.186l.11-.216q-.017-.021-.03-.042l-.017-.051q-.008-.199.144-.254.055-.017.11-.008.059.008.102.042.047.034.072.093t.013.14l-.004.013q-.008.034-.004.025.004-.013 0-.008.055.059.127.119.072.055.165.123.284.229.322.512l-.004-.008.013.093q.004.042.004.085 0 .195-.089.334-.059.072-.119.119-.059.047-.119.068-.064.025-.14.038-.072.013-.148.004z"/><g transform="translate(8.301 -12.12)scale(.0968)"><use xlink:href="#c" fill="url(#d)"/><use xlink:href="#e" fill="url(#f)"/><use xlink:href="#e" fill="url(#g)" opacity=".75"/><use xlink:href="#e" fill="url(#h)" opacity=".5"/></g><circle cx="1.571" cy="1.571" r="1.571" fill="#85d2ff"/><path fill="#ff2d00" d="m.981 1.415-.013.03-.008.025q.059.017.085.063.025.042.042.093l-.004-.013q0 .017.004.025v-.004q.008.008.038.03.034.021.08.042.11.055.161.055.127 0 .195-.076.068-.08.055-.203-.038-.203-.178-.322h.004l-.144-.102q-.068-.051-.114-.097-.008.021-.021.042l-.017.042q-.038.076-.08.169l-.085.199zm1.579-.072v.021q0 .004-.008.025v.004q-.301.715-1.012.715h-.174q-.182 0-.385-.127-.119-.059-.186-.152l-.013.021q0 .008-.004.017v-.004q-.08.182-.195.182-.178 0-.178-.169 0-.042.042-.123l-.004.004q.072-.174.152-.339.08-.169.152-.339v.004Q.782 1 .833.899.884.793.943.683.926.662.913.641L.896.59Q.888.391 1.04.336q.055-.017.11-.008.059.004.102.038.047.034.072.093t.013.14l-.004.017q-.008.03-.004.021t.004-.004q.051.059.123.114l.165.127q.284.224.322.508.004.03.004.068.004.038.004.072v.063q0 .025-.004.055.114-.085.195-.229l.038-.064q.021-.034.03-.059l.03-.042q.047-.072.14-.072.182 0 .182.169z"/><path d="M1.021 1.335q-.021.047-.042.08-.021.03-.042.051.08.008.106.055t.047.102l-.004-.013q0 .017.004.025v-.004q.017.021.119.076.114.051.161.051.127 0 .195-.076t.055-.203q-.038-.203-.178-.318h.004q-.157-.11-.258-.199-.03.059-.055.123-.038.089-.068.152l-.042.102zm.313.779q-.212-.038-.356-.127l.004.004q-.25-.148-.25-.351 0-.076.042-.127-.127-.017-.127-.169 0-.013.008-.042.004-.034.025-.076.013-.03.034-.072.017-.047.034-.072.034-.08.085-.186L.943.68Q.927.658.915.637L.898.586Q.889.387 1.042.332q.055-.017.11-.008.059.008.102.042.047.034.072.093t.013.14l-.004.013q-.008.034-.004.025.004-.013 0-.008.055.059.127.119.072.055.165.123.284.229.322.512l-.004-.008.013.093q.004.042.004.085 0 .195-.089.334-.059.072-.119.119-.059.047-.119.068-.064.025-.14.038-.072.013-.148.004z"/><g transform="translate(8.301 -15.262)scale(.0968)"><use xlink:href="#c" fill="url(#i)"/><use xlink:href="#e" fill="url(#j)"/><use xlink:href="#e" fill="url(#g)" opacity=".75"/><use xlink:href="#e" fill="url(#h)" opacity=".5"/></g><circle cx="1.571" cy="1.571" r="1.449" fill="none" stroke="#ff1212" stroke-width=".244"/></g></svg>