<svg xmlns="http://www.w3.org/2000/svg" width="128.001" height="128.001" viewBox="0 0 33.867 33.867"><defs><clipPath id="a"><circle cx="105.013" cy="148.5" r="366.707" fill="#fff" stroke="#000" stroke-width="14.463"/></clipPath></defs><g transform="translate(12.178 10.209)scale(.04528)"><circle cx="105.013" cy="148.5" r="366.707" fill="#fff"/><g fill="none" clip-path="url(#a)"><path stroke="#b015ff" stroke-width="3.465" d="M-149.649-236.988v789.953m271.672-789.953v789.953m271.672-789.953v789.953"/><path stroke="#1d5ef2" stroke-width="3.465" d="M491.841-80.788h-789.953m789.953 54.295h-789.953m789.953 54.296h-789.953m789.953 54.296h-789.953m789.953 108.592h-789.953m789.953 54.296h-789.953m789.953 54.295h-789.953m789.953 54.296h-789.953M491.841 462.17h-789.953"/><path stroke="#b015ff" stroke-width="5.665" d="M491.841 136.395h-789.953m789.953 271.479h-789.953m789.953-542.958h-789.953"/><path stroke="#1d5ef2" stroke-width="3.465" d="M491.841-189.38h-789.953"/></g><path fill="#fff" d="M100.67-31.84c-51.037 0-92.411 30.008-92.411 67.025.007 21.25 13.907 41.239 37.464 53.875a123.38 123.38 0 0 0-18.728 189.803 123.38 123.38 0 0 0 174.485 0c23.138-23.138 19.428-56.581 19.428-89.303-.004-47.154-28.433-92.251-52.551-108.805 15.871-12.384 24.703-28.662 24.725-45.57 0-37.017-41.374-67.026-92.411-67.025z"/><g stroke="#000"><path stroke-linejoin="round" stroke-width="2.144" d="M75.759 22.043c9.375 0 16.974 7.6 16.974 16.974s-7.6 16.975-16.974 16.975-16.974-7.6-16.974-16.975 7.599-16.974 16.974-16.974zm55.167 0c9.375 0 16.975 7.6 16.975 16.974a16.98 16.98 0 0 1-16.975 16.975c-9.374 0-16.974-7.6-16.974-16.975s7.6-16.974 16.974-16.974zM-30.972 243.836c-8.596-33.382-12.441-60.819-11.928-91.49-23.939 13.133-50.808 26.711-59.573 26.711-22.65 0 19.573-52.354 74.824-108.677 5.211-14.567 11.626-28.131 19.059-40.431 5.434-68.75 52.524-122.483 109.81-122.483S205.595-38.801 211.03 29.949c7.434 12.3 13.848 25.864 19.059 40.431 55.251 56.324 97.474 108.677 74.824 108.677-8.765 0-35.634-13.577-59.573-26.711.217 31.526-3.906 65.119-11.928 91.49l-21.858-5.368c0-65.299-29.589-121.03-71.215-142.889l-39.12 66.504-39.116-66.495c-41.628 21.897-71.218 77.8-71.217 143.86zM58.783-16.149c-23.437 0-42.436 22.8-42.436 50.923s18.999 50.923 42.436 50.923 42.437-22.799 42.437-50.923-18.999-50.923-42.437-50.923zm42.437 50.923c0 18.749 18.999 38.193 42.436 38.193s42.436-19.443 42.436-38.193-18.999-38.193-42.436-38.193-42.436 19.443-42.436 38.193zM16.347 246.956c32.848 0 60.249 14.579 66.54 33.948h5.602v16.975h-5.602c-6.291 19.369-33.692 33.948-66.54 33.948-37.499 0-67.898-18.999-67.898-42.436s30.399-42.436 67.898-42.436zm169.745 0c37.499 0 67.899 18.999 67.899 42.436s-30.4 42.436-67.899 42.436c-32.848 0-60.248-14.579-66.539-33.948h-5.602v-16.975h5.602c6.291-19.369 33.691-33.948 66.539-33.948z"/><circle cx="105.013" cy="148.5" r="366.707" fill="none" stroke-width="14.463"/></g></g></svg>