<svg xmlns="http://www.w3.org/2000/svg" width="165" height="165" fill="#1a5fb4" stroke="#1a5fb4" stroke-width="1.23" viewBox="0 0 30 30"><path stroke="none" d="M24.62 8.31c-.867 2.926-.12 6.198-.37 9.257v138.432c.73 2.184 3.665.822 5.396 1.2h109.767c2.184-.73.822-3.664 1.2-5.395V45.554c-.707-2.45-2.836-.126-4.19.387-3.867.903-7.945.234-11.887.432-5.174-.25-10.473.337-15.566-.706-3.227-1.567-6.205-4.66-6.646-8.282l-.196-24.605c.535-1.439 2.954-4.06.484-4.803H25.451q-.416.166-.83.333z" style="opacity:1;vector-effect:none;fill:#fcfcf8;fill-opacity:1;stroke:#000;stroke-width:0;stroke-linecap:butt;stroke-linejoin:miter;stroke-miterlimit:4;stroke-dasharray:none;stroke-dashoffset:0;stroke-opacity:1" transform="scale(.18182)"/><path d="M19.5 2a.5.5 0 0 0-.5.5v4c0 .822.678 1.5 1.5 1.5h4c.668.01.646-1 0-1h-4a.49.49 0 0 1-.5-.5v-4a.49.49 0 0 0-.5-.5Zm-15-2C3.678 0 3 .678 3 1.5v27c0 .822.678 1.5 1.5 1.5h21c.822 0 1.5-.678 1.5-1.5v-21a.5.5 0 0 0-.146-.354l-7-7A.5.5 0 0 0 19.5 0Zm0 1h14.793L26 7.707V28.5c0 .286-.214.5-.5.5h-21a.49.49 0 0 1-.5-.5v-27c0-.286.214-.5.5-.5Z" style="fill:none;stroke-width:1.23;stroke-miterlimit:4;stroke-dasharray:none;stroke:#000c87;stroke-opacity:1"/><path stroke="none" d="M112.731 17.214c-.904 2.8-.13 5.977-.387 8.923.215 3.226-.437 6.62.333 9.739 2.927.868 6.2.121 9.26.37 2.94-.196 6.083.345 8.918-.307 1.824-1.58-1.31-3.116-2.145-4.356-4.886-4.806-9.61-9.868-14.64-14.472-.452-.388-.877-.054-1.339.103z" style="opacity:1;vector-effect:none;fill:#ced8fd;fill-opacity:1;stroke:#000;stroke-width:0;stroke-linecap:butt;stroke-linejoin:miter;stroke-miterlimit:4;stroke-dasharray:none;stroke-dashoffset:0;stroke-opacity:1" transform="scale(.18182)"/></svg>