<svg xmlns="http://www.w3.org/2000/svg" width="128" height="128" fill="none" stroke="#000" stroke-linecap="square" viewBox="0 0 3.84 3.84"><g transform="scale(.61222)"><circle cx="3.136" cy="3.136" r="3.025" fill="#fff" stroke-width=".222"/><g stroke-linecap="butt"><path fill="#00f" stroke="#004af2" stroke-width=".052" d="M5.799 1.707H.4"/><path fill="purple" stroke="#b015ff" stroke-width=".21" d="M5.792 4.56H.555"/></g><path fill="#000" stroke="none" d="M3.374 3.178h-.288c-.314.009-.7.005-.674.352.016.217.314.193.471.193.367 0 .491-.059.491-.54zm.828 1.294h-.6v-.208c-.193.178-.441.273-.778.273-.582-.033-.936-.356-.942-.892 0-.63.407-.952 1.23-.952h.491c-.02-.288-.243-.476-.63-.506-.278 0-.575.094-.902.268v-.55q.528-.202.952-.203c.788 0 1.18.407 1.18 1.235z"/><circle cx="3.136" cy="3.136" r="3.025" stroke-width=".222"/></g></svg>