<svg xmlns="http://www.w3.org/2000/svg" width="800" height="800" fill="none" viewBox="0 0 24 24"><path fill="#000" d="M8 7a1 1 0 0 1 1 1v8a1 1 0 1 1-2 0V8a1 1 0 0 1 1-1M17 16V8a1 1 0 1 0-2 0v8a1 1 0 1 0 2 0"/><path fill="#000" fill-rule="evenodd" d="M6.444 2A4.444 4.444 0 0 0 2 6.444v11.112A4.444 4.444 0 0 0 6.444 22h11.112A4.444 4.444 0 0 0 22 17.556V6.444A4.444 4.444 0 0 0 17.556 2zm11.112 2H6.444A2.444 2.444 0 0 0 4 6.444v11.112A2.444 2.444 0 0 0 6.444 20h11.112A2.444 2.444 0 0 0 20 17.556V6.444A2.444 2.444 0 0 0 17.556 4" clip-rule="evenodd"/><path fill="#fff" stroke="#000" stroke-width="1.5" d="M16 14.75a1.75 1.75 0 1 0 0-3.5 1.75 1.75 0 0 0 0 3.5Zm-8-2a1.75 1.75 0 1 0 0-3.5 1.75 1.75 0 0 0 0 3.5Z"/></svg>