<svg xmlns="http://www.w3.org/2000/svg" xml:space="preserve" width="128" height="127.998" viewBox="0 0 79.385 79.384"><path d="M79.385 39.693C79.385 17.77 61.615 0 39.693 0S0 17.77 0 39.693c0 21.92 17.771 39.691 39.693 39.691s39.692-17.77 39.692-39.69" style="fill:#25b7d3;stroke-width:.16"/><path d="M22.115 27.774q0-3.34 2.144-6.767t6.258-5.678 9.597-2.25q5.098 0 9 1.88 3.902 1.882 6.03 5.116 2.126 3.235 2.127 7.031 0 2.99-1.213 5.238-1.214 2.25-2.883 3.885-1.671 1.635-5.994 5.502-1.196 1.09-1.916 1.916-.722.827-1.073 1.512a7.4 7.4 0 0 0-.545 1.371 53 53 0 0 0-.58 2.408q-.668 3.657-4.183 3.657-1.829 0-3.076-1.196t-1.248-3.55q0-2.954.914-5.116a13 13 0 0 1 2.426-3.797q1.511-1.635 4.078-3.884 2.25-1.97 3.252-2.971a10 10 0 0 0 1.687-2.233q.686-1.23.686-2.671 0-2.812-2.092-4.746t-5.397-1.934q-3.868 0-5.695 1.951t-3.094 5.748Q30.13 32.17 26.79 32.17q-1.97 0-3.322-1.389t-1.353-3.006M39.27 66.305q-2.145 0-3.744-1.388t-1.6-3.885q0-2.215 1.547-3.727 1.545-1.51 3.797-1.511 2.214 0 3.726 1.511 1.511 1.512 1.512 3.727 0 2.46-1.582 3.867-1.583 1.406-3.656 1.406" style="fill:#fff;stroke-width:.16"/></svg>