<svg xmlns="http://www.w3.org/2000/svg" xml:space="preserve" width="800" height="800" class="icon" viewBox="0 0 1024 1024"><path fill="#ffa000" d="m27.648 794.52.015-311.428 955.586.015-.015 311.428z" style="fill:teal"/><path fill="#9e6400" d="M484.63 623.517V482.745h42.661v140.772zm120.68-60.038v-78.924h42.66v78.924zm120.695 60.054V482.76h42.66v140.773zm120.62-140.2 42.675.015-.015 78.91h-42.66zm-724.078 80.101V484.51h42.66v78.924zm120.695 60.053V482.715h42.66v140.772zm120.694-60.023V484.54h42.66v78.924z" style="fill:#999"/><path d="M78.848 432.083h521.164" style="fill:red;fill-opacity:1;stroke:red;stroke-width:102.4;stroke-linecap:square;stroke-linejoin:miter;stroke-dasharray:none;stroke-opacity:1;paint-order:markers stroke fill"/><path d="M945.488 160.86c-3.489.168-6.38 2.373-8.993 4.476-7.381 6.13-14.155 12.94-21.017 19.633-23.275 22.953-46.17 46.288-69.151 69.533-33.174 33.676-66.396 67.303-99.429 101.113-12.506 12.844-25.047 25.664-37.146 38.898-4.523 5.017-9.133 10.026-12.764 15.747-1.703 2.79-2.715 6.085-2.323 9.37.266 6.016 2.685 12.185 7.494 15.996 4.67 3.832 11.01 5.92 17.015 4.645 2.698-.472 5.432-1.39 7.436-3.336 4.664-3.932 8.996-8.234 13.426-12.423 22.298-21.433 44.183-43.29 66.068-65.144 31.258-31.277 62.28-62.786 93.335-94.267 16.36-16.658 32.785-33.26 48.665-50.379 6.129-6.735 12.38-13.431 17.484-21.001 2.441-3.676 4.524-7.932 4.21-12.461-.236-3.007-1.377-5.86-2.65-8.56-2.407-3.936-6.428-6.493-10.41-8.615-3.484-1.782-7.276-3.273-11.25-3.226" style="fill:#f55;stroke-width:173.559;stroke-linecap:square;stroke-dasharray:none;paint-order:markers stroke fill"/><path fill="#000" fill-rule="evenodd" d="M960.662 197.56 729.33 431.733c-7.28 7.369-19.094 7.369-26.392 0-7.28-7.387-7.28-19.346 0-26.735L934.27 170.844c7.28-7.387 19.094-7.387 26.392 0 7.298 7.369 7.298 19.329 0 26.716m54.8-31.969-49.63-48.67c-7.354-7.236-19.131-6.898-26.336.523L652.431 412.852a19 19 0 0 0-5.357 13.25v44.231c0 10.449 8.343 15.38 18.665 15.38h42.799c4.871 0 9.556-.186 13.046-3.609l293.897-289.891c7.503-7.425 7.503-19.214-.019-26.622"/></svg>