<svg xmlns="http://www.w3.org/2000/svg" xmlns:xlink="http://www.w3.org/1999/xlink" width="905.727" height="385.842"><g transform="translate(-263.76 606.06)scale(5.14696)"><path d="M-24.981 104.796a33.57 33.57 0 0 1-32.6 33.554 33.57 33.57 0 0 1-34.48-31.618 33.57 33.57 0 0 1 30.61-35.378 33.57 33.57 0 0 1 36.247 29.576" style="opacity:1;vector-effect:none;fill:none;fill-opacity:1;stroke:none;stroke-width:1.27682;stroke-linecap:round;stroke-linejoin:round;stroke-miterlimit:4;stroke-dasharray:none;stroke-dashoffset:0;stroke-opacity:1" transform="rotate(-163.018)"/><image xlink:href="../../educajou.forge.aeif.fr/img/cajou.png" width="58.876" height="68.129" x="60.814" y="-117.751" preserveAspectRatio="none"/><path d="m456 103.4-28-11.2 28-44.8 28 44.8z" style="fill:#c96" transform="rotate(19.88 290.366 133.026)scale(.07016)"/><path d="M504 392.2v59.2c0 16-12.8 28.8-28.8 28.8h-38.4c-16 0-28.8-12.8-28.8-28.8V96.2c0-1.6.8-3.2 1.6-4l40-64c3.2-4.8 10.4-4.8 13.6 0l40 64c.8 1.6 1.6 2.4 1.6 4v296zm-16 59.2v-59.2h-16v-16h16v-268l-24 9.6v154.4h-16V117.8l-24-9.6v268h40v16h-40v59.2c0 7.2 5.6 12.8 12.8 12.8h38.4c7.2 0 12.8-5.6 12.8-12.8m-4-359.2-28-44.8-28 44.8 28 11.2z" style="fill:#42210b" transform="rotate(19.88 290.366 133.026)scale(.07016)"/><path d="M488 392.2v59.2c0 7.2-5.6 12.8-12.8 12.8h-38.4c-7.2 0-12.8-5.6-12.8-12.8v-59.2h48z" style="fill:#f90" transform="rotate(19.88 290.366 133.026)scale(.07016)"/><path d="M488 108.2v268h-16v16h-8v-16h-40v-268l24 9.6v154.4h16V117.8Zm-24 236v-56h-16v56z" style="fill:#ffc600" transform="rotate(19.88 290.366 133.026)scale(.07016)"/><path d="M448 288.2h16v56h-16zM400 192.2v280c0 4-4 8-8 8H8c-4 0-8-4-8-8v-336c2.4-31.2 28-56 60-56h300c4 0 8 3.2 8 8v96h24c4 0 8 4 8 8m-16 272v-264H88v264zm-32-280v-16H104v-16h248v-24H176v-16h176v-16H60c-24 0-44 20-44 44s20 44 44 44zm-280 280v-264H60c-17.6 0-32.8-7.2-44-19.2v283.2z" style="fill:#42210b" transform="rotate(19.88 290.366 133.026)scale(.07016)"/><path d="M384 200.2v264H88v-264h272zm-24 120v-96c0-4-4-8-8-8H120c-4.8 0-8 4-8 8v96c0 4 3.2 8 8 8h232c4 0 8-4 8-8m-8 56v-16h-56v16zm-24 48v-16H120v16zm-64-48v-16H120v16z" style="fill:#ee5656" transform="rotate(19.88 290.366 133.026)scale(.07016)"/><path d="M360 224.2v96c0 4-4 8-8 8H120c-4.8 0-8-4-8-8v-96c0-4 3.2-8 8-8h232c4 0 8 4 8 8m-16 88v-80H128v80zM296 360.2h56v16h-56z" style="fill:#42210b" transform="rotate(19.88 290.366 133.026)scale(.07016)"/><path d="M352 168.2v16H60c-24 0-44-20-44-44s20-44 44-44h292v16H176v16h176v24H104v16zm-216-40v-16H88v16z" style="fill:#d9cdc1" transform="rotate(19.88 290.366 133.026)scale(.07016)"/><path d="M352 112.2v-8H76c-24 0-44 20-44 44 0 13.6 6.4 26.4 16.8 34.4 3.2.8 7.2 1.6 11.2 1.6h292v-16H104v-16h248v-24H176v-16zm-216 16H88v-16h48z" style="fill:#fff8ef" transform="rotate(19.88 290.366 133.026)scale(.07016)"/><path d="M128 232.2h216v80H128z" style="fill:#f90" transform="rotate(19.88 290.366 133.026)scale(.07016)"/><path d="M120 408.2h208v16H120zM120 360.2h144v16H120zM88 112.2h48v16H88z" style="fill:#42210b" transform="rotate(19.88 290.366 133.026)scale(.07016)"/><path d="M72 200.2v264H16V181c11.2 12 26.4 19.2 44 19.2z" style="fill:#e94545" transform="rotate(19.88 290.366 133.026)scale(.07016)"/><text xml:space="preserve" x="180.053" y="-50.623" style="font-style:normal;font-variant:normal;font-weight:400;font-stretch:normal;font-size:37.8879px;font-family:&quot;AA cursive&quot;;-inkscape-font-specification:&quot;AA cursive&quot;;text-align:center;text-anchor:middle;fill:#fff;stroke:none;stroke-width:11.9346;stroke-linecap:square;stroke-linejoin:round;stroke-dasharray:none;paint-order:markers fill stroke;stop-color:#000" transform="scale(.96266 1.03879)"><tspan x="180.053" y="-50.623" style="font-style:normal;font-variant:normal;font-weight:700;font-stretch:normal;font-family:Purisa;-inkscape-font-specification:&quot;Purisa Bold&quot;;fill:#1a1a1a;stroke-width:11.9346">Seyes</tspan></text><text xml:space="preserve" x="190.409" y="-81.742" style="font-style:normal;font-variant:normal;font-weight:400;font-stretch:normal;font-size:22.275px;font-family:&quot;AA cursive&quot;;-inkscape-font-specification:&quot;AA cursive&quot;;text-align:center;text-anchor:middle;fill:#fff;stroke:none;stroke-width:7.01661;stroke-linecap:square;stroke-linejoin:round;stroke-dasharray:none;paint-order:markers fill stroke;stop-color:#000" transform="scale(.9091 1.09999)"><tspan x="190.409" y="-81.742" style="font-style:normal;font-variant:normal;font-weight:700;font-stretch:normal;font-family:Purisa;-inkscape-font-specification:&quot;Purisa Bold&quot;;fill:#1a1a1a;stroke-width:7.01661">Éducajou</tspan></text></g></svg>