<svg xmlns="http://www.w3.org/2000/svg" xmlns:xlink="http://www.w3.org/1999/xlink" width="132" height="120" viewBox="0.419 -0.43 132 120"><linearGradient id="a"><stop offset="0" stop-color="#fff"/><stop offset=".203" stop-color="#c2c2c2"/><stop offset=".494" stop-color="#707070"/><stop offset=".733" stop-color="#333"/><stop offset=".908" stop-color="#0e0e0e"/><stop offset="1"/></linearGradient><linearGradient xlink:href="#a" id="f" x1="66.16" x2="66.16" y1="153.394" y2="47.237" gradientUnits="userSpaceOnUse"/><linearGradient id="g" x1="67.489" x2="67.489" y1="-5.69" y2="46.145" gradientUnits="userSpaceOnUse"><stop offset="0" stop-color="#fff"/><stop offset="1"/></linearGradient><linearGradient id="h" x1="57.992" x2="101.575" y1="67.164" y2="110.746" gradientUnits="userSpaceOnUse"><stop offset=".006" stop-color="#fff"/><stop offset=".235" stop-color="#dfdfdf"/><stop offset=".573" stop-color="#b6b6b6"/><stop offset=".839" stop-color="#9d9d9d"/><stop offset="1" stop-color="#949494"/></linearGradient><linearGradient id="i" x1="50.924" x2="101.229" y1="60.007" y2="110.661" gradientUnits="userSpaceOnUse"><stop offset=".006" stop-color="#fff"/><stop offset=".049" stop-color="#f7f7f7"/><stop offset=".372" stop-color="#bfbfbf"/><stop offset=".65" stop-color="#969696"/><stop offset=".868" stop-color="#7c7c7c"/><stop offset="1" stop-color="#737373"/></linearGradient><linearGradient id="b"><stop offset=".034" stop-color="#fff"/><stop offset="1" stop-color="#949494"/></linearGradient><linearGradient xlink:href="#b" id="j" x1="48.262" x2="66.694" y1="22.739" y2="41.171" gradientUnits="userSpaceOnUse"/><linearGradient xlink:href="#b" id="k" x1="79.519" x2="95.51" y1="24.443" y2="40.434" gradientUnits="userSpaceOnUse"/><linearGradient xlink:href="#a" id="l" x1="62.784" x2="62.784" y1="36.09" y2="26.315" gradientUnits="userSpaceOnUse"/><linearGradient xlink:href="#a" id="m" x1="71.153" x2="71.153" y1="34.176" y2="27.439" gradientUnits="userSpaceOnUse"/><linearGradient id="n" x1="74.693" x2="70.778" y1="46.076" y2="43.312" gradientUnits="userSpaceOnUse"><stop offset=".034" stop-color="#fff"/><stop offset="1" stop-color="gray"/></linearGradient><linearGradient id="A" x1="74.108" x2="62.927" y1="44.581" y2="38.991" gradientUnits="userSpaceOnUse"><stop offset="0" stop-color="#ff8b00"/><stop offset=".202" stop-color="#ffc200"/><stop offset="1" stop-color="#ff0"/></linearGradient><linearGradient id="o" x1="66.21" x2="66.21" y1="139.169" y2="96.39" gradientUnits="userSpaceOnUse"><stop offset=".04" stop-color="#fff"/><stop offset="1" stop-color="#fff" stop-opacity="0"/></linearGradient><linearGradient id="t" x1="66.9" x2="66.9" y1="87.963" y2="107.37" gradientUnits="userSpaceOnUse"><stop offset=".034" stop-color="#fff"/><stop offset="1" stop-color="#b2b2b2"/></linearGradient><linearGradient id="c"><stop offset="0" stop-color="#ffc200"/><stop offset=".155" stop-color="#f7b500"/><stop offset=".716" stop-color="#de8800"/><stop offset="1" stop-color="#d47700"/></linearGradient><linearGradient xlink:href="#c" id="q" x1="97.741" x2="97.741" y1="120.684" y2="97.179" gradientUnits="userSpaceOnUse"/><linearGradient id="d"><stop offset="0" stop-color="#ffa700"/><stop offset=".691" stop-color="#ff0"/><stop offset=".792" stop-color="#fffc00"/><stop offset=".855" stop-color="#fff400"/><stop offset=".907" stop-color="#ffe500"/><stop offset=".953" stop-color="#ffd100"/><stop offset=".995" stop-color="#ffb700"/><stop offset="1" stop-color="#ffb300"/></linearGradient><linearGradient xlink:href="#d" id="s" x1="97.741" x2="97.741" y1="105.395" y2="120.881" gradientUnits="userSpaceOnUse"/><linearGradient id="e"><stop offset="0" stop-color="#ff0"/><stop offset=".164" stop-color="#fff100"/><stop offset=".719" stop-color="#ffc400"/><stop offset="1" stop-color="#ffb300"/></linearGradient><radialGradient xlink:href="#e" id="u" cx="96.747" cy="-1002.57" r="33.93" gradientTransform="matrix(1 0 0 .4062 0 524.54)" gradientUnits="userSpaceOnUse"/><linearGradient id="v" x1="97.743" x2="97.743" y1="101.476" y2="110.175" gradientUnits="userSpaceOnUse"><stop offset=".075" stop-color="#fff"/><stop offset="1" stop-color="#fff" stop-opacity="0"/></linearGradient><linearGradient xlink:href="#c" id="w" x1="39.692" x2="39.692" y1="121.16" y2="97.658" gradientUnits="userSpaceOnUse"/><linearGradient xlink:href="#d" id="x" x1="39.693" x2="39.693" y1="105.872" y2="121.36" gradientUnits="userSpaceOnUse"/><radialGradient xlink:href="#e" id="y" cx="38.7" cy="-1001.4" r="33.927" gradientTransform="matrix(1 0 0 .4062 0 524.54)" gradientUnits="userSpaceOnUse"/><linearGradient id="z" x1="39.692" x2="39.692" y1="101.956" y2="110.654" gradientUnits="userSpaceOnUse"><stop offset=".057" stop-color="#fff"/><stop offset="1" stop-color="#fff" stop-opacity="0"/></linearGradient><path d="M18.192 47.798a.65.65 0 0 0 .196-.383C22.066 20.765 43 .669 67.085.669c24.43 0 45.403 20.437 48.785 47.54a.68.68 0 0 0 .204.399l14.694 13.863c-2.63.063-14.204.346-14.204.346a.685.685 0 0 0-.666.592c-.844 7.008-2.865 13.698-6.017 19.881-8.763 17.218-25.162 27.915-42.797 27.915-16.454 0-31.755-9.171-40.938-24.53-3.979-6.652-6.569-14.007-7.701-21.858a.676.676 0 0 0-.66-.575l-16.163-.407c1.996-1.929 16.57-16.037 16.57-16.037"/><path fill="url(#f)" d="M114.966 49.731a2.2 2.2 0 0 1-.68-1.333C110.999 22.078 90.708 2.23 67.085 2.23c-23.287 0-43.541 19.514-47.111 45.394a2.22 2.22 0 0 1-.657 1.285L5.405 62.371l12.421.312c1.116.028 2.048.84 2.202 1.917 1.102 7.652 3.624 14.812 7.498 21.29 8.892 14.874 23.68 23.756 39.558 23.756 17.024 0 32.876-10.364 41.368-27.047 3.064-6.023 5.038-12.542 5.861-19.373.133-1.099 1.074-1.938 2.21-1.968l10.39-.252z"/><path fill="url(#g)" d="M103.55 28.04c0 14.351-16.146 25.984-36.059 25.984-19.917 0-36.063-11.633-36.063-25.984S47.574 2.054 67.491 2.054c19.913 0 36.059 11.634 36.059 25.986"/><path fill="#fff" d="M71.201 26.431c0 .743-.55 1.342-1.23 1.342s-1.229-.599-1.229-1.342c0-.739.551-1.338 1.229-1.338.68-.001 1.23.599 1.23 1.338"/><path fill="url(#h)" d="M94.375 48.432c-7.305-7.25-16.589-11.596-26.7-11.596-12.499 0-23.733 6.64-31.525 17.2-6.49 8.789-10.598 20.296-11.05 32.974 8.959 14.987 24.209 24.862 41.527 24.862 18.603 0 34.817-11.397 43.413-28.284-1.259-14.184-7.103-26.664-15.665-35.156"/><path fill="url(#i)" d="M94.375 48.432c-7.305-7.25-16.589-11.596-26.7-11.596-12.499 0-23.733 6.64-31.525 17.2-6.49 8.789-10.598 20.296-11.05 32.974 8.959 14.987 24.209 24.862 41.527 24.862 18.603 0 34.817-11.397 43.413-28.284-1.259-14.184-7.103-26.664-15.665-35.156"/><path fill="url(#j)" d="M67.675 26.605c0 9.23-6.959 16.711-15.549 16.711-8.584 0-15.546-7.481-15.546-16.711 0-9.231 6.962-16.712 15.546-16.712 8.59 0 15.549 7.481 15.549 16.712"/><path fill="url(#k)" d="M98.071 27.797c0 7.066-6.804 12.79-15.198 12.79s-15.198-5.724-15.198-12.79c0-7.063 6.804-12.791 15.198-12.791s15.198 5.728 15.198 12.791"/><path fill="url(#l)" d="M67.327 27.119c0 2.728-2.034 4.943-4.542 4.943s-4.542-2.215-4.542-4.943c0-2.734 2.034-4.948 4.542-4.948s4.542 2.214 4.542 4.948"/><path fill="#fff" d="M63.012 25.68c0 .93-.691 1.684-1.544 1.684-.855 0-1.547-.753-1.547-1.684 0-.928.691-1.681 1.547-1.681.852.001 1.544.753 1.544 1.681"/><path fill="url(#m)" d="M74.283 27.992c0 1.881-1.402 3.408-3.128 3.408-1.729 0-3.131-1.526-3.131-3.408s1.403-3.409 3.131-3.409c1.726 0 3.128 1.526 3.128 3.409"/><path fill="#fff" d="M70.77 27.449c0 .684-.511 1.243-1.142 1.243-.633 0-1.141-.559-1.141-1.243 0-.69.508-1.244 1.141-1.244.631 0 1.142.554 1.142 1.244"/><path fill="url(#n)" d="M55.447 38.633s8.095-1.796 12.876-1.796c4.782 0 12.508 1.796 12.508 1.796L68.323 53.356z" opacity=".4"/><path fill="url(#o)" d="M116.524 61.256c-1.136.03-2.077.869-2.21 1.968-.823 6.831-2.797 13.35-5.861 19.373-8.492 16.683-24.344 27.047-41.368 27.047-15.878 0-30.667-8.882-39.558-23.756-3.875-6.479-6.396-13.638-7.498-21.29-.154-1.077-1.086-1.889-2.202-1.917l-12.421-.312 13.912-13.462c.358-.346.587-.799.657-1.285 3.57-25.879 23.824-45.394 47.111-45.394 23.623 0 43.914 19.849 47.201 46.168.063.507.302.979.68 1.333l11.948 11.273c-4.69.117-10.391.254-10.391.254m.026-13.126C113.156 20.933 92.31 0 67.085 0 42.107 0 21.41 20.522 17.711 47.325L0 64.462l17.769.445c1.164 8.08 3.88 15.574 7.786 22.103 8.959 14.987 24.209 24.862 41.53 24.862 18.603 0 34.817-11.397 43.41-28.284 3.097-6.083 5.214-12.87 6.084-20.104l15.84-.386z"/><path d="M95.565 99.67c-12.871 0-23.31 4.244-23.31 9.479 0 .917.328 1.803.927 2.642 9.114-1.645 17.468-5.902 24.468-12.08a62 62 0 0 0-2.085-.041m-52.864.317c-2.123 0-4.168.127-6.104.36 7.429 6.427 16.474 10.524 26.314 11.355.83-.929 1.285-1.933 1.285-2.98 0-4.826-9.624-8.735-21.495-8.735" opacity=".2"/><g transform="translate(34.649 42.177)scale(.12774)"><path d="M256 504.006c-63.629 0-123.449-24.778-168.442-69.77-44.992-44.993-69.77-104.812-69.77-168.442 0-47.166 13.765-92.77 39.81-131.879 7.34-11.024 22.228-14.01 33.253-6.669 11.024 7.34 14.009 22.228 6.668 33.253-20.783 31.21-31.768 67.619-31.768 105.295 0 104.904 85.346 190.25 190.25 190.25s190.25-85.346 190.25-190.25c0-36.565-10.392-72.068-30.051-102.672-19.166-29.834-46.152-53.687-78.046-68.981-11.942-5.728-16.981-20.051-11.254-31.993s20.049-16.981 31.994-11.253c39.915 19.142 73.686 48.985 97.66 86.305 24.637 38.353 37.66 82.82 37.66 128.594 0 63.629-24.778 123.449-69.771 168.442-44.995 44.992-104.814 69.77-168.443 69.77" style="fill:#4a5058"/><path d="M338.153 94.14c31.894 15.296 58.881 39.148 78.046 68.981 19.659 30.603 30.051 66.107 30.051 102.672 0 49.702-19.166 95.005-50.485 128.93 37.68-34.784 61.32-84.563 61.32-139.765 0-36.565-10.392-72.068-30.051-102.672-19.165-29.834-46.152-53.687-78.046-68.981-11.942-5.727-16.981-20.051-11.254-31.993.045-.094.095-.183.141-.277a23.88 23.88 0 0 0-10.977 11.112c-5.726 11.943-.687 26.267 11.255 31.993M98.394 423.4c-44.992-44.993-69.77-104.812-69.77-168.442 0-46.05 13.128-90.606 37.987-129.087a23.9 23.9 0 0 0-9.014 8.044c-26.043 39.109-39.81 84.713-39.81 131.879 0 63.629 24.778 123.449 69.77 168.442 44.993 44.992 104.812 69.77 168.442 69.77s123.448-24.778 168.441-69.77a244 244 0 0 0 5.323-5.514c-44.31 41.612-101.86 64.448-162.929 64.448-63.628 0-123.447-24.778-168.44-69.77" style="opacity:.15"/><circle cx="256.001" cy="51.565" r="43.569" style="fill:#7e858b"/><path d="M263.616 87.512c-24.063 0-43.569-19.507-43.569-43.569a43.36 43.36 0 0 1 9.195-26.754c-10.229 7.972-16.814 20.4-16.814 34.374 0 24.062 19.507 43.569 43.569 43.569 13.974 0 26.402-6.586 34.374-16.814a43.37 43.37 0 0 1-26.755 9.194" style="opacity:.2"/><path d="M117.151 48.578c-15.61 9.978-20.815 30.348-11.904 46.591l108.494 197.78c14.01 25.541 46.709 33.895 71.255 18.205s30.692-48.875 13.392-72.314L164.435 57.335c-11.002-14.907-31.674-18.735-47.284-8.757" style="fill:#e45d4c"/><path d="M296.897 299.253c-24.546 15.69-57.245 7.335-71.255-18.205L117.148 83.268c-6.226-11.349-5.553-24.708.738-35.134-.245.148-.492.29-.734.444-15.61 9.978-20.815 30.348-11.904 46.592l108.494 197.78c14.01 25.541 46.709 33.895 71.255 18.206a50.2 50.2 0 0 0 13.947-13.287c-.67.473-1.349.938-2.047 1.384" style="opacity:.2"/><path d="M206.732 296.793c7.739 14.107 21.117 24.482 36.707 28.465a58 58 0 0 0 14.379 1.802c11.061 0 22.039-3.135 31.481-9.171 13.557-8.666 23.013-22.71 25.943-38.531s-.869-32.32-10.424-45.266L170.866 52.589c-13.451-18.226-38.936-22.945-58.02-10.746s-25.501 37.311-14.607 57.17Zm-85.276-241.48a27.04 27.04 0 0 1 14.6-4.262c8.387 0 16.649 3.853 21.946 11.031l133.953 181.505c7.038 9.536 9.725 21.206 7.567 32.861s-8.847 21.588-18.833 27.972c-9.987 6.384-21.811 8.284-33.293 5.349-11.483-2.934-20.948-10.272-26.648-20.664L112.255 91.325c-6.862-12.509-2.82-28.327 9.201-36.012m134.541 47.812c28.432 0 51.563-23.132 51.563-51.563C307.559 23.131 284.429 0 255.997 0s-51.563 23.131-51.563 51.563 23.131 51.562 51.563 51.562m0-87.138c19.615 0 35.575 15.959 35.575 35.575s-15.96 35.575-35.575 35.575c-19.617 0-35.575-15.96-35.575-35.575s15.958-35.575 35.575-35.575m207.282 116.892c-24.775-38.567-59.676-69.409-100.93-89.193-15.896-7.622-35.033-.891-42.657 15.005s-.892 35.034 15.005 42.658c30.556 14.654 56.413 37.509 74.776 66.094 18.831 29.312 28.784 63.322 28.784 98.351 0 100.497-81.76 182.256-182.257 182.256S73.745 366.291 73.745 265.794c0-36.093 10.522-70.971 30.427-100.865 4.733-7.108 6.416-15.636 4.737-24.01s-6.52-15.593-13.628-20.326-15.636-6.417-24.01-4.737-15.593 6.52-20.326 13.628C24.024 169.91 9.794 217.045 9.794 265.794c0 65.764 25.61 127.591 72.112 174.094S190.236 512 256 512s127.591-25.61 174.094-72.112 72.112-108.331 72.112-174.094c0-47.309-13.461-93.271-38.927-132.915m-44.491 295.704c-43.483 43.483-101.295 67.43-162.788 67.43s-119.307-23.947-162.789-67.43-67.43-101.296-67.43-162.789c0-45.585 13.303-89.656 38.469-127.448a15.89 15.89 0 0 1 10.164-6.814 15.873 15.873 0 0 1 12.004 2.369 15.9 15.9 0 0 1 6.814 10.163 15.88 15.88 0 0 1-2.368 12.005c-21.659 32.526-33.108 70.468-33.108 109.726 0 109.312 88.932 198.244 198.244 198.244s198.244-88.932 198.244-198.244c0-38.1-10.83-75.097-31.319-106.992-19.966-31.081-48.085-55.932-81.315-71.869-7.949-3.812-11.314-13.38-7.502-21.328 3.811-7.948 13.378-11.314 21.329-7.502 38.579 18.501 71.219 47.346 94.391 83.418 23.808 37.062 36.393 80.035 36.393 124.274-.002 61.492-23.949 119.304-67.433 162.787"/></g><path fill="url(#q)" d="M75.044 109.453c0 5.081 10.183 9.223 22.696 9.223 12.516 0 22.698-4.142 22.698-9.223 0-5.084-10.183-9.222-22.698-9.222-12.513 0-22.696 4.138-22.696 9.222m2.065 0c0-4.622 9.255-8.382 20.631-8.382 11.378 0 20.636 3.76 20.636 8.382s-9.258 8.381-20.636 8.381c-11.376-.001-20.631-3.759-20.631-8.381"/><path fill="url(#s)" d="M119.407 109.453c0 4.861-9.698 8.802-21.667 8.802-11.964 0-21.665-3.94-21.665-8.802 0-4.86 9.701-8.8 21.665-8.8 11.969 0 21.667 3.939 21.667 8.8"/><path fill="url(#t)" d="M66.186 99.339c-17.822 0-33.247-8.865-40.775-21.784a64 64 0 0 0-.982 9.122c8.961 14.985 24.209 24.859 41.53 24.859 18.603 0 34.818-11.396 43.413-28.282a63 63 0 0 0-1.212-7.918c-6.995 14.117-23.152 24.003-41.974 24.003" opacity=".4"/><path fill="url(#u)" d="M117.46 110.92c0 3.657-8.829 6.622-19.72 6.622-10.889 0-19.718-2.965-19.718-6.622 0-3.655 8.829-6.619 19.718-6.619 10.891 0 19.72 2.964 19.72 6.619"/><path fill="url(#v)" d="M115.87 106.437c0 2.934-8.114 5.313-18.13 5.313-10.011 0-18.125-2.38-18.125-5.313s8.114-5.312 18.125-5.312c10.016 0 18.13 2.378 18.13 5.312"/><path fill="url(#w)" d="M16.994 109.932c0 5.083 10.183 9.22 22.699 9.22 12.513 0 22.696-4.137 22.696-9.22s-10.183-9.222-22.696-9.222c-12.516 0-22.699 4.138-22.699 9.222m2.066 0c0-4.623 9.255-8.384 20.634-8.384 11.375 0 20.631 3.761 20.631 8.384 0 4.621-9.255 8.383-20.631 8.383-11.38 0-20.634-3.762-20.634-8.383"/><path fill="url(#x)" d="M61.358 109.932c0 4.862-9.699 8.802-21.665 8.802-11.968 0-21.665-3.939-21.665-8.802 0-4.859 9.697-8.803 21.665-8.803 11.966 0 21.665 3.944 21.665 8.803"/><path fill="url(#y)" d="M59.411 111.399c0 3.659-8.829 6.621-19.718 6.621-10.892 0-19.718-2.962-19.718-6.621 0-3.656 8.826-6.618 19.718-6.618 10.889 0 19.718 2.962 19.718 6.618"/><path fill="url(#z)" d="M57.821 106.915c0 2.935-8.117 5.315-18.127 5.315-10.013 0-18.129-2.381-18.129-5.315s8.116-5.31 18.129-5.31c10.01 0 18.127 2.375 18.127 5.31"/><path d="m115.205 48.479-9.368 13.718 9.368-.334z"/><path fill="url(#A)" d="M54.399 36.91s8.02-1.782 12.761-1.782c4.739 0 12.395 1.782 12.395 1.782L67.16 51.501z"/></svg>